<svg width="184" height="129" viewBox="0 0 184 129" fill="none" xmlns="http://www.w3.org/2000/svg">
<path d="M0.465637 10.75C0.465637 4.81294 5.13445 0 10.8937 0H173.572C179.331 0 184 4.81294 184 10.75V118.25C184 124.187 179.331 129 173.572 129H10.8937C5.13445 129 0.465637 124.187 0.465637 118.25V10.75Z" fill="#F2F57F"/>
<path fill-rule="evenodd" clip-rule="evenodd" d="M173.572 1.075H10.8937C5.71038 1.075 1.50845 5.40664 1.50845 10.75V118.25C1.50845 123.593 5.71038 127.925 10.8937 127.925H173.572C178.755 127.925 182.957 123.593 182.957 118.25V10.75C182.957 5.40665 178.755 1.075 173.572 1.075ZM10.8937 0C5.13445 0 0.465637 4.81294 0.465637 10.75V118.25C0.465637 124.187 5.13445 129 10.8937 129H173.572C179.331 129 184 124.187 184 118.25V10.75C184 4.81294 179.331 0 173.572 0H10.8937Z" fill="black"/>
<path d="M0.465637 10.7705C0.465637 4.82213 5.13445 0 10.8937 0H173.572C179.331 0 184 4.82212 184 10.7705V19.6947H0.465637V10.7705Z" fill="black"/>
<path d="M13.8484 9.30573C13.8484 7.97329 14.7821 6.89313 15.934 6.89313H103.53C104.682 6.89313 105.616 7.97328 105.616 9.30572V11.3737C105.616 12.7061 104.682 13.7863 103.53 13.7863H15.934C14.7821 13.7863 13.8484 12.7061 13.8484 11.3737V9.30573Z" fill="#F2F57F"/>
<path fill-rule="evenodd" clip-rule="evenodd" d="M103.53 8.09943H15.934C15.358 8.09943 14.8912 8.6395 14.8912 9.30573V11.3737C14.8912 12.0399 15.358 12.58 15.934 12.58H103.53C104.106 12.58 104.573 12.0399 104.573 11.3737V9.30572C104.573 8.6395 104.106 8.09943 103.53 8.09943ZM15.934 6.89313C14.7821 6.89313 13.8484 7.97329 13.8484 9.30573V11.3737C13.8484 12.7061 14.7821 13.7863 15.934 13.7863H103.53C104.682 13.7863 105.616 12.7061 105.616 11.3737V9.30572C105.616 7.97328 104.682 6.89313 103.53 6.89313H15.934Z" fill="black"/>
<path d="M177.309 10.3397C177.309 12.2432 175.811 13.7863 173.963 13.7863C172.115 13.7863 170.617 12.2432 170.617 10.3397C170.617 8.43621 172.115 6.89313 173.963 6.89313C175.811 6.89313 177.309 8.43621 177.309 10.3397Z" fill="#F2F57F"/>
<path fill-rule="evenodd" clip-rule="evenodd" d="M0.465637 10.7705C0.465637 4.82213 5.13445 0 10.8937 0H173.572C179.331 0 184 4.82212 184 10.7705V19.6947H0.465637V10.7705ZM13.5752 9.5396C13.5752 8.34992 14.509 7.3855 15.6609 7.3855H103.257C104.409 7.3855 105.342 8.34992 105.342 9.5396V11.386C105.342 12.5757 104.409 13.5401 103.257 13.5401H15.6609C14.509 13.5401 13.5752 12.5757 13.5752 11.386V9.5396ZM173.87 13.5401C175.515 13.5401 176.849 12.1623 176.849 10.4628C176.849 8.76325 175.515 7.3855 173.87 7.3855C172.224 7.3855 170.89 8.76325 170.89 10.4628C170.89 12.1623 172.224 13.5401 173.87 13.5401Z" fill="black"/>
<path fill-rule="evenodd" clip-rule="evenodd" d="M10.8937 1.07705C5.71038 1.07705 1.50845 5.41697 1.50845 10.7705V18.6176H182.957V10.7705C182.957 5.41696 178.755 1.07705 173.572 1.07705H10.8937ZM184 10.7705C184 4.82212 179.331 0 173.572 0H10.8937C5.13445 0 0.465637 4.82213 0.465637 10.7705V19.6947H184V10.7705ZM12.5324 9.5396C12.5324 7.75508 13.9331 6.30844 15.6609 6.30844H103.257C104.985 6.30844 106.385 7.75508 106.385 9.5396V11.386C106.385 13.1705 104.985 14.6171 103.257 14.6171H15.6609C13.9331 14.6171 12.5324 13.1705 12.5324 11.386V9.5396ZM177.892 10.4628C177.892 12.7572 176.091 14.6171 173.87 14.6171C171.648 14.6171 169.848 12.7572 169.848 10.4628C169.848 8.16841 171.648 6.30844 173.87 6.30844C176.091 6.30844 177.892 8.16841 177.892 10.4628ZM15.6609 7.3855C14.509 7.3855 13.5752 8.34992 13.5752 9.5396V11.386C13.5752 12.5757 14.509 13.5401 15.6609 13.5401H103.257C104.409 13.5401 105.342 12.5757 105.342 11.386V9.5396C105.342 8.34992 104.409 7.3855 103.257 7.3855H15.6609ZM176.849 10.4628C176.849 12.1623 175.515 13.5401 173.87 13.5401C172.224 13.5401 170.89 12.1623 170.89 10.4628C170.89 8.76325 172.224 7.3855 173.87 7.3855C175.515 7.3855 176.849 8.76325 176.849 10.4628Z" fill="#121212"/>
<path d="M10.0247 31.7248C10.0247 30.5193 10.9582 29.542 12.1097 29.542H172.356C173.507 29.542 174.441 30.5193 174.441 31.7248V46.0691C174.441 47.2746 173.507 48.2519 172.356 48.2519H12.1097C10.9582 48.2519 10.0247 47.2746 10.0247 46.0691V31.7248Z" fill="#F2F57F"/>
<path fill-rule="evenodd" clip-rule="evenodd" d="M172.356 30.0877H12.1097C11.2461 30.0877 10.546 30.8207 10.546 31.7248V46.0691C10.546 46.9732 11.2461 47.7062 12.1097 47.7062H172.356C173.22 47.7062 173.92 46.9732 173.92 46.0691V31.7248C173.92 30.8207 173.22 30.0877 172.356 30.0877ZM12.1097 29.542C10.9582 29.542 10.0247 30.5193 10.0247 31.7248V46.0691C10.0247 47.2746 10.9582 48.2519 12.1097 48.2519H172.356C173.507 48.2519 174.441 47.2746 174.441 46.0691V31.7248C174.441 30.5193 173.507 29.542 172.356 29.542H12.1097Z" fill="black"/>
<path d="M10.0247 60.2361C10.0247 59.056 10.9646 58.0992 12.124 58.0992H69.1036C70.263 58.0992 71.2028 59.056 71.2028 60.2361V117.016C71.2028 118.196 70.263 119.153 69.1036 119.153H12.124C10.9646 119.153 10.0247 118.196 10.0247 117.016V60.2361Z" fill="#F2F57F"/>
<path fill-rule="evenodd" clip-rule="evenodd" d="M69.1036 58.6335H12.124C11.2544 58.6335 10.5495 59.351 10.5495 60.2361V117.016C10.5495 117.901 11.2544 118.618 12.124 118.618H69.1036C69.9731 118.618 70.678 117.901 70.678 117.016V60.2361C70.678 59.351 69.9731 58.6335 69.1036 58.6335ZM12.124 58.0992C10.9646 58.0992 10.0247 59.056 10.0247 60.2361V117.016C10.0247 118.196 10.9646 119.153 12.124 119.153H69.1036C70.263 119.153 71.2028 118.196 71.2028 117.016V60.2361C71.2028 59.056 70.263 58.0992 69.1036 58.0992H12.124Z" fill="black"/>
<path d="M80.7619 60.2361C80.7619 59.056 81.691 58.0992 82.8371 58.0992H172.366C173.512 58.0992 174.441 59.056 174.441 60.2361V117.016C174.441 118.196 173.512 119.153 172.366 119.153H82.8371C81.691 119.153 80.7619 118.196 80.7619 117.016V60.2361Z" fill="#F2F57F"/>
<path fill-rule="evenodd" clip-rule="evenodd" d="M172.366 58.6335H82.8371C81.9775 58.6335 81.2807 59.351 81.2807 60.2361V117.016C81.2807 117.901 81.9775 118.618 82.8371 118.618H172.366C173.225 118.618 173.922 117.901 173.922 117.016V60.2361C173.922 59.351 173.225 58.6335 172.366 58.6335ZM82.8371 58.0992C81.691 58.0992 80.7619 59.056 80.7619 60.2361V117.016C80.7619 118.196 81.691 119.153 82.8371 119.153H172.366C173.512 119.153 174.441 118.196 174.441 117.016V60.2361C174.441 59.056 173.512 58.0992 172.366 58.0992H82.8371Z" fill="black"/>
<path d="M89.5 112.26C88.9452 112.26 88.4654 112.051 88.0606 111.634C87.6557 111.217 87.4533 110.723 87.4533 110.151V96.666C87.4533 96.079 87.6557 95.577 88.0606 95.16C88.4654 94.7429 88.9452 94.5344 89.5 94.5344H102.59C103.16 94.5344 103.647 94.7429 104.052 95.16C104.457 95.577 104.66 96.079 104.66 96.666V110.151C104.66 110.723 104.457 111.217 104.052 111.634C103.647 112.051 103.16 112.26 102.59 112.26H89.5ZM89.5 110.151H102.59V96.666H89.5V110.151ZM90.3098 108.274H101.803L98.2494 103.246L95.2805 107.185L93.1887 104.243L90.3098 108.274ZM89.5 110.151V96.666V110.151Z" fill="black"/>
<path d="M161.62 45.2977V43.3639L166.085 38.7893L167.944 40.7023L163.499 45.2977H161.62ZM154.367 41.139V39.226H161.277V41.139H154.367ZM168.813 39.8082L166.954 37.8952L167.54 37.2921C167.702 37.1119 167.91 37.0218 168.166 37.0218C168.422 37.0218 168.638 37.1119 168.813 37.2921L169.399 37.8952C169.574 38.0754 169.661 38.2972 169.661 38.5606C169.661 38.8239 169.574 39.0388 169.399 39.2052L168.813 39.8082ZM154.367 37.2506V35.3583H164.469V37.2506H154.367ZM154.367 33.4037V31.5115H164.469V33.4037H154.367Z" fill="black"/>
<path d="M21.5224 80.7481L21.0773 77.9516C20.8795 77.8955 20.6605 77.7974 20.4204 77.6572C20.1802 77.517 19.9824 77.3839 19.827 77.2577L17.199 78.4562L14.8043 74.2509L17.199 72.5268C17.1849 72.4567 17.1779 72.3551 17.1779 72.2219V71.5911C17.1779 71.472 17.1849 71.3633 17.199 71.2652L14.8043 69.499L17.199 65.3358L19.8693 66.5343C20.0106 66.4362 20.2014 66.317 20.4416 66.1768C20.6817 66.0367 20.8937 65.9385 21.0773 65.8825L21.5224 63.0229H26.2484L26.6722 65.8614C26.8842 65.9175 27.1067 66.0156 27.3398 66.1558C27.5729 66.296 27.7672 66.4221 27.9226 66.5343L30.5929 65.3358L32.9665 69.499L30.5293 71.2021C30.5435 71.3143 30.5611 71.4334 30.5823 71.5596C30.6035 71.6857 30.6141 71.7979 30.6141 71.896C30.6141 71.9941 30.6035 72.1028 30.5823 72.2219C30.5611 72.3411 30.5435 72.4497 30.5293 72.5478L32.9665 74.2509L30.5505 78.4562L27.9226 77.2577C27.7672 77.3839 27.5659 77.5205 27.3186 77.6677C27.0714 77.8149 26.863 77.9095 26.6934 77.9516L26.2484 80.7481H21.5224ZM23.8536 74.5663C24.6024 74.5663 25.2382 74.307 25.761 73.7884C26.2837 73.2697 26.5451 72.6389 26.5451 71.896C26.5451 71.1671 26.2837 70.5398 25.761 70.0141C25.2382 69.4885 24.6024 69.2257 23.8536 69.2257C23.0907 69.2257 22.4513 69.4885 21.9356 70.0141C21.42 70.5398 21.1621 71.1671 21.1621 71.896C21.1621 72.6389 21.42 73.2697 21.9356 73.7884C22.4513 74.307 23.0907 74.5663 23.8536 74.5663ZM23.8324 73.3678C23.4227 73.3678 23.0765 73.2207 22.794 72.9263C22.5114 72.6319 22.3701 72.2885 22.3701 71.896C22.3701 71.4895 22.5114 71.1426 22.794 70.8552C23.0765 70.5678 23.4297 70.4242 23.8536 70.4242C24.2492 70.4242 24.5953 70.5713 24.892 70.8657C25.1887 71.1601 25.3371 71.5035 25.3371 71.896C25.3371 72.3025 25.1887 72.6494 24.892 72.9368C24.5953 73.2242 24.2421 73.3678 23.8324 73.3678ZM23.133 78.8347H24.6165L24.9344 76.5008C25.4289 76.3746 25.8916 76.1959 26.3226 75.9646C26.7535 75.7333 27.1385 75.4284 27.4776 75.0499L29.724 76.0382L30.381 74.7976L28.4101 73.3889C28.4807 73.1366 28.5372 72.8877 28.5796 72.6424C28.622 72.3971 28.6432 72.1483 28.6432 71.896C28.6432 71.6437 28.622 71.3914 28.5796 71.1391C28.5372 70.8867 28.4878 70.6484 28.4312 70.4242L30.4022 68.9944L29.724 67.7538L27.4776 68.742C27.1526 68.3496 26.7747 68.0166 26.3438 67.7433C25.9128 67.47 25.4431 67.3123 24.9344 67.2702L24.6377 64.9573H23.1118L22.8363 67.2702C22.3418 67.3683 21.8721 67.5435 21.427 67.7959C20.982 68.0482 20.5899 68.3566 20.2508 68.721L18.0468 67.7538L17.3686 68.9944L19.3183 70.3821C19.2477 70.6204 19.1947 70.8657 19.1594 71.118C19.1241 71.3703 19.1064 71.6367 19.1064 71.917C19.1064 72.1834 19.1241 72.4427 19.1594 72.695C19.1947 72.9473 19.2477 73.1786 19.3183 73.3889L17.3686 74.7976L18.0468 76.0382L20.2508 75.0499C20.604 75.4284 20.9996 75.7438 21.4376 75.9961C21.8756 76.2484 22.3418 76.4237 22.8363 76.5218L23.133 78.8347Z" fill="black"/>
<path d="M151.741 78.7006L144.808 71.8855L151.82 64.9924L153.54 66.6831L148.301 71.8595L153.513 76.9578L151.741 78.7006ZM160.737 78.7786L159.017 77.0879L164.283 71.9115L159.07 66.7872L160.79 65.0964L167.75 71.8855L160.737 78.7786Z" fill="black"/>
<path d="M0.465637 12.2857C0.465637 5.5005 5.80142 0 12.3835 0H172.082C178.664 0 184 5.5005 184 12.2857V116.714C184 123.499 178.664 129 172.082 129H12.3835C5.80143 129 0.465637 123.499 0.465637 116.714V12.2857Z" fill="#F2F57F"/>
<path fill-rule="evenodd" clip-rule="evenodd" d="M172.082 1.22857H12.3835C6.45963 1.22857 1.65742 6.17902 1.65742 12.2857V116.714C1.65742 122.821 6.45963 127.771 12.3835 127.771H172.082C178.006 127.771 182.808 122.821 182.808 116.714V12.2857C182.808 6.17902 178.006 1.22857 172.082 1.22857ZM12.3835 0C5.80142 0 0.465637 5.5005 0.465637 12.2857V116.714C0.465637 123.499 5.80143 129 12.3835 129H172.082C178.664 129 184 123.499 184 116.714V12.2857C184 5.5005 178.664 0 172.082 0H12.3835Z" fill="black"/>
<path d="M0.465637 12.3092C0.465637 5.511 5.80142 0 12.3835 0H172.082C178.664 0 184 5.511 184 12.3092V19.6947H0.465637V12.3092Z" fill="black"/>
<path d="M13.8484 9.65038C13.8484 8.12759 14.9155 6.89313 16.2319 6.89313H103.232C104.548 6.89313 105.616 8.12759 105.616 9.65038V11.029C105.616 12.5518 104.548 13.7863 103.232 13.7863H16.2319C14.9155 13.7863 13.8484 12.5518 13.8484 11.029V9.65038Z" fill="#F2F57F"/>
<path fill-rule="evenodd" clip-rule="evenodd" d="M103.232 8.27175H16.2319C15.5737 8.27175 15.0401 8.88899 15.0401 9.65038V11.029C15.0401 11.7904 15.5737 12.4076 16.2319 12.4076H103.232C103.89 12.4076 104.424 11.7904 104.424 11.029V9.65038C104.424 8.88899 103.89 8.27175 103.232 8.27175ZM16.2319 6.89313C14.9155 6.89313 13.8484 8.12759 13.8484 9.65038V11.029C13.8484 12.5518 14.9155 13.7863 16.2319 13.7863H103.232C104.548 13.7863 105.616 12.5518 105.616 11.029V9.65038C105.616 8.12759 104.548 6.89313 103.232 6.89313H16.2319Z" fill="black"/>
<path d="M177.309 10.3397C177.309 12.2432 175.811 13.7863 173.963 13.7863C172.115 13.7863 170.617 12.2432 170.617 10.3397C170.617 8.43621 172.115 6.89313 173.963 6.89313C175.811 6.89313 177.309 8.43621 177.309 10.3397Z" fill="#F2F57F"/>
<path fill-rule="evenodd" clip-rule="evenodd" d="M0.465637 12.3092C0.465637 5.511 5.80142 0 12.3835 0H172.082C178.664 0 184 5.511 184 12.3092V19.6947H0.465637V12.3092ZM13.5752 9.84733C13.5752 8.4877 14.6424 7.3855 15.9588 7.3855H102.959C104.275 7.3855 105.342 8.4877 105.342 9.84733V11.0782C105.342 12.4379 104.275 13.5401 102.959 13.5401H15.9588C14.6424 13.5401 13.5752 12.4379 13.5752 11.0782V9.84733ZM173.87 13.5401C175.515 13.5401 176.849 12.1623 176.849 10.4628C176.849 8.76325 175.515 7.3855 173.87 7.3855C172.224 7.3855 170.89 8.76325 170.89 10.4628C170.89 12.1623 172.224 13.5401 173.87 13.5401Z" fill="black"/>
<path fill-rule="evenodd" clip-rule="evenodd" d="M12.3835 1.23092C6.45963 1.23092 1.65742 6.19082 1.65742 12.3092V18.4637H182.808V12.3092C182.808 6.19082 178.006 1.23092 172.082 1.23092H12.3835ZM184 12.3092C184 5.511 178.664 0 172.082 0H12.3835C5.80142 0 0.465637 5.511 0.465637 12.3092V19.6947H184V12.3092ZM12.3835 9.84733C12.3835 7.80788 13.9842 6.15458 15.9588 6.15458H102.959C104.933 6.15458 106.534 7.80788 106.534 9.84733V11.0782C106.534 13.1177 104.933 14.771 102.959 14.771H15.9588C13.9842 14.771 12.3835 13.1177 12.3835 11.0782V9.84733ZM178.041 10.4628C178.041 12.8421 176.174 14.771 173.87 14.771C171.566 14.771 169.699 12.8421 169.699 10.4628C169.699 8.08343 171.566 6.15458 173.87 6.15458C176.174 6.15458 178.041 8.08343 178.041 10.4628ZM15.9588 7.3855C14.6424 7.3855 13.5752 8.4877 13.5752 9.84733V11.0782C13.5752 12.4379 14.6424 13.5401 15.9588 13.5401H102.959C104.275 13.5401 105.342 12.4379 105.342 11.0782V9.84733C105.342 8.4877 104.275 7.3855 102.959 7.3855H15.9588ZM176.849 10.4628C176.849 12.1623 175.515 13.5401 173.87 13.5401C172.224 13.5401 170.89 12.1623 170.89 10.4628C170.89 8.76325 172.224 7.3855 173.87 7.3855C175.515 7.3855 176.849 8.76325 176.849 10.4628Z" fill="#121212"/>
<path d="M10.0247 32.0366C10.0247 30.6589 11.0916 29.542 12.4076 29.542H172.058C173.374 29.542 174.441 30.6589 174.441 32.0366V45.7573C174.441 47.135 173.374 48.2519 172.058 48.2519H12.4076C11.0916 48.2519 10.0247 47.135 10.0247 45.7573V32.0366Z" fill="#F2F57F"/>
<path fill-rule="evenodd" clip-rule="evenodd" d="M172.058 30.1657H12.4076C11.4206 30.1657 10.6204 31.0033 10.6204 32.0366V45.7573C10.6204 46.7906 11.4206 47.6283 12.4076 47.6283H172.058C173.045 47.6283 173.845 46.7906 173.845 45.7573V32.0366C173.845 31.0033 173.045 30.1657 172.058 30.1657ZM12.4076 29.542C11.0916 29.542 10.0247 30.6589 10.0247 32.0366V45.7573C10.0247 47.135 11.0916 48.2519 12.4076 48.2519H172.058C173.374 48.2519 174.441 47.135 174.441 45.7573V32.0366C174.441 30.6589 173.374 29.542 172.058 29.542H12.4076Z" fill="black"/>
<path d="M10.0247 60.5414C10.0247 59.1926 11.0989 58.0992 12.4239 58.0992H68.8037C70.1287 58.0992 71.2028 59.1926 71.2028 60.5414V116.711C71.2028 118.059 70.1287 119.153 68.8037 119.153H12.4239C11.0989 119.153 10.0247 118.059 10.0247 116.711V60.5414Z" fill="#F2F57F"/>
<path fill-rule="evenodd" clip-rule="evenodd" d="M68.8037 58.7098H12.4239C11.4301 58.7098 10.6245 59.5298 10.6245 60.5414V116.711C10.6245 117.722 11.4301 118.542 12.4239 118.542H68.8037C69.7975 118.542 70.6031 117.722 70.6031 116.711V60.5414C70.6031 59.5298 69.7975 58.7098 68.8037 58.7098ZM12.4239 58.0992C11.0989 58.0992 10.0247 59.1926 10.0247 60.5414V116.711C10.0247 118.059 11.0989 119.153 12.4239 119.153H68.8037C70.1287 119.153 71.2028 118.059 71.2028 116.711V60.5414C71.2028 59.1926 70.1287 58.0992 68.8037 58.0992H12.4239Z" fill="black"/>
<path d="M80.7619 60.5414C80.7619 59.1926 81.8237 58.0992 83.1335 58.0992H172.069C173.379 58.0992 174.441 59.1926 174.441 60.5414V116.711C174.441 118.059 173.379 119.153 172.069 119.153H83.1335C81.8237 119.153 80.7619 118.059 80.7619 116.711V60.5414Z" fill="#F2F57F"/>
<path fill-rule="evenodd" clip-rule="evenodd" d="M172.069 58.7098H83.1335C82.1512 58.7098 81.3548 59.5298 81.3548 60.5414V116.711C81.3548 117.722 82.1512 118.542 83.1335 118.542H172.069C173.052 118.542 173.848 117.722 173.848 116.711V60.5414C173.848 59.5298 173.052 58.7098 172.069 58.7098ZM83.1335 58.0992C81.8237 58.0992 80.7619 59.1926 80.7619 60.5414V116.711C80.7619 118.059 81.8237 119.153 83.1335 119.153H172.069C173.379 119.153 174.441 118.059 174.441 116.711V60.5414C174.441 59.1926 173.379 58.0992 172.069 58.0992H83.1335Z" fill="black"/>
<path d="M89.5 112.26C88.9452 112.26 88.4654 112.051 88.0606 111.634C87.6557 111.217 87.4533 110.723 87.4533 110.151V96.666C87.4533 96.079 87.6557 95.577 88.0606 95.16C88.4654 94.7429 88.9452 94.5344 89.5 94.5344H102.59C103.16 94.5344 103.647 94.7429 104.052 95.16C104.457 95.577 104.66 96.079 104.66 96.666V110.151C104.66 110.723 104.457 111.217 104.052 111.634C103.647 112.051 103.16 112.26 102.59 112.26H89.5ZM89.5 110.151H102.59V96.666H89.5V110.151ZM90.3098 108.274H101.803L98.2494 103.246L95.2805 107.185L93.1887 104.243L90.3098 108.274ZM89.5 110.151V96.666V110.151Z" fill="black"/>
<path d="M161.62 45.2977V43.3639L166.085 38.7893L167.944 40.7023L163.499 45.2977H161.62ZM154.367 41.139V39.226H161.277V41.139H154.367ZM168.813 39.8082L166.954 37.8952L167.54 37.2921C167.702 37.1119 167.91 37.0218 168.166 37.0218C168.422 37.0218 168.638 37.1119 168.813 37.2921L169.399 37.8952C169.574 38.0754 169.661 38.2972 169.661 38.5606C169.661 38.8239 169.574 39.0388 169.399 39.2052L168.813 39.8082ZM154.367 37.2506V35.3583H164.469V37.2506H154.367ZM154.367 33.4037V31.5115H164.469V33.4037H154.367Z" fill="black"/>
<path d="M21.5224 80.7481L21.0773 77.9516C20.8795 77.8955 20.6605 77.7974 20.4204 77.6572C20.1802 77.517 19.9824 77.3839 19.827 77.2577L17.199 78.4562L14.8043 74.2509L17.199 72.5268C17.1849 72.4567 17.1779 72.3551 17.1779 72.2219V71.5911C17.1779 71.472 17.1849 71.3633 17.199 71.2652L14.8043 69.499L17.199 65.3358L19.8693 66.5343C20.0106 66.4362 20.2014 66.317 20.4416 66.1768C20.6817 66.0367 20.8937 65.9385 21.0773 65.8825L21.5224 63.0229H26.2484L26.6722 65.8614C26.8842 65.9175 27.1067 66.0156 27.3398 66.1558C27.5729 66.296 27.7672 66.4221 27.9226 66.5343L30.5929 65.3358L32.9665 69.499L30.5293 71.2021C30.5435 71.3143 30.5611 71.4334 30.5823 71.5596C30.6035 71.6857 30.6141 71.7979 30.6141 71.896C30.6141 71.9941 30.6035 72.1028 30.5823 72.2219C30.5611 72.3411 30.5435 72.4497 30.5293 72.5478L32.9665 74.2509L30.5505 78.4562L27.9226 77.2577C27.7672 77.3839 27.5659 77.5205 27.3186 77.6677C27.0714 77.8149 26.863 77.9095 26.6934 77.9516L26.2484 80.7481H21.5224ZM23.8536 74.5663C24.6024 74.5663 25.2382 74.307 25.761 73.7884C26.2837 73.2697 26.5451 72.6389 26.5451 71.896C26.5451 71.1671 26.2837 70.5398 25.761 70.0141C25.2382 69.4885 24.6024 69.2257 23.8536 69.2257C23.0907 69.2257 22.4513 69.4885 21.9356 70.0141C21.42 70.5398 21.1621 71.1671 21.1621 71.896C21.1621 72.6389 21.42 73.2697 21.9356 73.7884C22.4513 74.307 23.0907 74.5663 23.8536 74.5663ZM23.8324 73.3678C23.4227 73.3678 23.0765 73.2207 22.794 72.9263C22.5114 72.6319 22.3701 72.2885 22.3701 71.896C22.3701 71.4895 22.5114 71.1426 22.794 70.8552C23.0765 70.5678 23.4297 70.4242 23.8536 70.4242C24.2492 70.4242 24.5953 70.5713 24.892 70.8657C25.1887 71.1601 25.3371 71.5035 25.3371 71.896C25.3371 72.3025 25.1887 72.6494 24.892 72.9368C24.5953 73.2242 24.2421 73.3678 23.8324 73.3678ZM23.133 78.8347H24.6165L24.9344 76.5008C25.4289 76.3746 25.8916 76.1959 26.3226 75.9646C26.7535 75.7333 27.1385 75.4284 27.4776 75.0499L29.724 76.0382L30.381 74.7976L28.4101 73.3889C28.4807 73.1366 28.5372 72.8877 28.5796 72.6424C28.622 72.3971 28.6432 72.1483 28.6432 71.896C28.6432 71.6437 28.622 71.3914 28.5796 71.1391C28.5372 70.8867 28.4878 70.6484 28.4312 70.4242L30.4022 68.9944L29.724 67.7538L27.4776 68.742C27.1526 68.3496 26.7747 68.0166 26.3438 67.7433C25.9128 67.47 25.4431 67.3123 24.9344 67.2702L24.6377 64.9573H23.1118L22.8363 67.2702C22.3418 67.3683 21.8721 67.5435 21.427 67.7959C20.982 68.0482 20.5899 68.3566 20.2508 68.721L18.0468 67.7538L17.3686 68.9944L19.3183 70.3821C19.2477 70.6204 19.1947 70.8657 19.1594 71.118C19.1241 71.3703 19.1064 71.6367 19.1064 71.917C19.1064 72.1834 19.1241 72.4427 19.1594 72.695C19.1947 72.9473 19.2477 73.1786 19.3183 73.3889L17.3686 74.7976L18.0468 76.0382L20.2508 75.0499C20.604 75.4284 20.9996 75.7438 21.4376 75.9961C21.8756 76.2484 22.3418 76.4237 22.8363 76.5218L23.133 78.8347Z" fill="black"/>
<path d="M151.741 78.7006L144.808 71.8855L151.82 64.9924L153.54 66.6831L148.301 71.8595L153.513 76.9578L151.741 78.7006ZM160.737 78.7786L159.017 77.0879L164.283 71.9115L159.07 66.7872L160.79 65.0964L167.75 71.8855L160.737 78.7786Z" fill="black"/>
</svg>
