<svg width="170" height="129" viewBox="0 0 170 129" fill="none" xmlns="http://www.w3.org/2000/svg">
<rect x="16.5" y="0.5" width="153" height="104" rx="9.5" fill="#F2F57F" stroke="#121212"/>
<path d="M16.5 10C16.5 4.7533 20.7533 0.5 26 0.5H160C165.247 0.5 169.5 4.7533 169.5 10V15.5H16.5V10Z" fill="black" stroke="#121212"/>
<rect x="27.5" y="6.5" width="76" height="4" rx="1.5" fill="#F2F57F" stroke="black"/>
<circle cx="161.5" cy="8.5" r="2.5" fill="#F2F57F"/>
<rect x="8.5" y="12.5" width="153" height="104" rx="9.5" fill="#F2F57F" stroke="#121212"/>
<path d="M8.5 22C8.5 16.7533 12.7533 12.5 18 12.5H152C157.247 12.5 161.5 16.7533 161.5 22V27.5H8.5V22Z" fill="black" stroke="#121212"/>
<rect x="19.5" y="18.5" width="76" height="4" rx="1.5" fill="#F2F57F" stroke="black"/>
<rect x="19.5" y="18.5" width="76" height="4" rx="1.5" fill="#F2F57F" stroke="black"/>
<circle cx="153.5" cy="20.5" r="2.5" fill="#F2F57F"/>
<rect x="0.5" y="24.5" width="153" height="104" rx="9.5" fill="#F2F57F" stroke="black"/>
<path d="M0 34C0 28.4772 4.47715 24 10 24H144C149.523 24 154 28.4772 154 34V40H0V34Z" fill="black"/>
<rect x="11.5" y="30.5" width="76" height="4" rx="1.5" fill="#F2F57F" stroke="black"/>
<circle cx="145.5" cy="32.5" r="2.5" fill="#F2F57F"/>
<rect x="0.5" y="24.5" width="153" height="104" rx="9.5" stroke="#121212"/>
<mask id="path-15-inside-1_85_944" fill="white">
<path fill-rule="evenodd" clip-rule="evenodd" d="M0 34C0 28.4772 4.47715 24 10 24H144C149.523 24 154 28.4772 154 34V40H0V34ZM11 32C11 30.8954 11.8954 30 13 30H86C87.1046 30 88 30.8954 88 32V33C88 34.1046 87.1046 35 86 35H13C11.8954 35 11 34.1046 11 33V32ZM145.5 35C146.881 35 148 33.8807 148 32.5C148 31.1193 146.881 30 145.5 30C144.119 30 143 31.1193 143 32.5C143 33.8807 144.119 35 145.5 35Z"/>
</mask>
<path fill-rule="evenodd" clip-rule="evenodd" d="M0 34C0 28.4772 4.47715 24 10 24H144C149.523 24 154 28.4772 154 34V40H0V34ZM11 32C11 30.8954 11.8954 30 13 30H86C87.1046 30 88 30.8954 88 32V33C88 34.1046 87.1046 35 86 35H13C11.8954 35 11 34.1046 11 33V32ZM145.5 35C146.881 35 148 33.8807 148 32.5C148 31.1193 146.881 30 145.5 30C144.119 30 143 31.1193 143 32.5C143 33.8807 144.119 35 145.5 35Z" fill="black"/>
<path d="M154 40V41H155V40H154ZM0 40H-1V41H0V40ZM10 23C3.92487 23 -1 27.9249 -1 34H1C1 29.0294 5.02944 25 10 25V23ZM144 23H10V25H144V23ZM155 34C155 27.9249 150.075 23 144 23V25C148.971 25 153 29.0294 153 34H155ZM155 40V34H153V40H155ZM0 41H154V39H0V41ZM-1 34V40H1V34H-1ZM13 29C11.3431 29 10 30.3431 10 32H12C12 31.4477 12.4477 31 13 31V29ZM86 29H13V31H86V29ZM89 32C89 30.3431 87.6569 29 86 29V31C86.5523 31 87 31.4477 87 32H89ZM89 33V32H87V33H89ZM86 36C87.6569 36 89 34.6569 89 33H87C87 33.5523 86.5523 34 86 34V36ZM13 36H86V34H13V36ZM10 33C10 34.6569 11.3431 36 13 36V34C12.4477 34 12 33.5523 12 33H10ZM10 32V33H12V32H10ZM147 32.5C147 33.3284 146.328 34 145.5 34V36C147.433 36 149 34.433 149 32.5H147ZM145.5 31C146.328 31 147 31.6716 147 32.5H149C149 30.567 147.433 29 145.5 29V31ZM144 32.5C144 31.6716 144.672 31 145.5 31V29C143.567 29 142 30.567 142 32.5H144ZM145.5 34C144.672 34 144 33.3284 144 32.5H142C142 34.433 143.567 36 145.5 36V34Z" fill="#121212" mask="url(#path-15-inside-1_85_944)"/>
<rect x="8.25" y="48.25" width="137.5" height="14.5" rx="1.75" fill="#F2F57F" stroke="black" stroke-width="0.5"/>
<rect x="8.25" y="71.25" width="50.5" height="49.5" rx="1.75" fill="#F2F57F" stroke="black" stroke-width="0.5"/>
<rect x="67.25" y="71.25" width="78.5" height="49.5" rx="1.75" fill="#F2F57F" stroke="black" stroke-width="0.5"/>
</svg>
