<svg width="174" height="129" viewBox="0 0 174 129" fill="none" xmlns="http://www.w3.org/2000/svg">
<path d="M0 129V107.059C0 101.762 1.35987 97.0022 4.07961 92.7779C6.79935 88.5535 10.5627 85.3695 15.3697 83.2258C24.8571 79.1906 33.4275 76.2273 41.0807 74.3358C48.7339 72.4443 56.6085 71.4985 64.7045 71.4985C73.0534 71.4985 81.0229 72.4443 88.6129 74.3358C96.2028 76.2273 104.742 79.1906 114.229 83.2258C119.036 85.2434 122.831 88.3328 125.614 92.4941C128.397 96.6554 129.788 101.51 129.788 107.059V129H0ZM143.261 129V107.437C143.261 99.2405 141.205 92.4311 137.094 87.0088C132.983 81.5865 127.575 76.5425 120.87 71.8768C128.46 73.1378 135.607 74.6826 142.312 76.511C149.016 78.3394 154.646 80.3255 159.2 82.4692C163.627 84.8651 167.201 88.2383 169.92 92.5887C172.64 96.9392 174 102.078 174 108.004V129H143.261ZM64.8942 60.1496C55.7863 60.1496 48.4809 57.4069 42.9782 51.9216C37.4755 46.4362 34.7241 39.217 34.7241 30.2639C34.7241 21.1847 37.5071 13.871 43.0731 8.32258C48.639 2.77419 55.9128 0 64.8942 0C73.7492 0 81.0229 2.77419 86.7154 8.32258C92.4078 13.871 95.2541 21.1217 95.2541 30.0748C95.2541 39.154 92.4078 46.4362 86.7154 51.9216C81.0229 57.4069 73.7492 60.1496 64.8942 60.1496ZM138.137 30.0748C138.137 39.0279 135.323 46.2786 129.694 51.827C124.064 57.3754 116.822 60.1496 107.967 60.1496C106.323 60.1496 104.836 60.055 103.508 59.8658C102.18 59.6767 100.63 59.2669 98.8593 58.6364C102.148 55.2317 104.583 51.1334 106.165 46.3416C107.746 41.5499 108.537 36.1276 108.537 30.0748C108.537 24.1481 107.746 18.8834 106.165 14.2808C104.583 9.67815 102.148 5.42229 98.8593 1.5132C100.251 1.0088 101.769 0.630498 103.413 0.378299C105.058 0.126099 106.576 0 107.967 0C116.822 0 124.064 2.80572 129.694 8.41716C135.323 14.0286 138.137 21.2478 138.137 30.0748ZM17.2672 111.787H112.332V107.815C112.332 105.924 111.731 104.001 110.529 102.046C109.327 100.092 107.778 98.7991 105.88 98.1686C97.1516 94.3856 89.9411 91.8952 84.2486 90.6972C78.5562 89.4993 72.0414 88.9003 64.7045 88.9003C57.6205 88.9003 51.1058 89.4993 45.1603 90.6972C39.2148 91.8952 32.0044 94.3856 23.5289 98.1686C21.7579 98.7991 20.2715 100.092 19.0698 102.046C17.868 104.001 17.2672 105.924 17.2672 107.815V111.787ZM64.7045 45.0176C69.1319 45.0176 72.8004 43.6305 75.7099 40.8563C78.6194 38.0821 80.0742 34.4883 80.0742 30.0748C80.0742 25.7874 78.6194 22.2251 75.7099 19.3878C72.8004 16.5506 69.1952 15.132 64.8942 15.132C60.4667 15.132 56.8615 16.5506 54.0785 19.3878C51.2955 22.2251 49.904 25.7874 49.904 30.0748C49.904 34.3622 51.2955 37.9245 54.0785 40.7617C56.8615 43.599 60.4035 45.0176 64.7045 45.0176Z" fill="#F2F57F"/>
<path fill-rule="evenodd" clip-rule="evenodd" d="M114.229 83.2258C104.742 79.1906 96.2028 76.2273 88.6129 74.3358C81.0229 72.4443 73.0534 71.4985 64.7045 71.4985C56.6085 71.4985 48.7339 72.4443 41.0807 74.3358C33.4275 76.2273 24.8571 79.1906 15.3697 83.2258C10.5627 85.3695 6.79935 88.5535 4.07961 92.7779C1.35987 97.0022 0 101.762 0 107.059V129H129.788V107.059C129.788 101.51 128.397 96.6554 125.614 92.4941C122.831 88.3329 119.036 85.2434 114.229 83.2258ZM23.5289 98.1686C21.7579 98.7991 20.2715 100.092 19.0698 102.046C18.9176 102.294 18.775 102.541 18.6421 102.787C17.7255 104.487 17.2672 106.163 17.2672 107.815V111.787H112.332V107.815C112.332 106.163 111.873 104.487 110.957 102.787C110.824 102.541 110.681 102.294 110.529 102.046C109.327 100.092 107.778 98.7991 105.88 98.1686C97.1516 94.3856 89.9411 91.8952 84.2486 90.6972C78.5562 89.4993 72.0414 88.9003 64.7045 88.9003C57.6205 88.9003 51.1058 89.4993 45.1603 90.6972C39.2148 91.8952 32.0044 94.3856 23.5289 98.1686ZM134.462 83.79C130.76 79.5773 126.229 75.6062 120.87 71.8768C127.32 72.9483 133.449 74.2247 139.26 75.706C140.287 75.9679 141.304 76.2362 142.312 76.511C149.016 78.3394 154.646 80.3255 159.2 82.4692C163.627 84.8651 167.201 88.2383 169.92 92.5887C172.64 96.9392 174 102.078 174 108.004V129H143.261V107.437C143.261 99.2405 141.205 92.4311 137.094 87.0088C136.269 85.9207 135.391 84.8477 134.462 83.79ZM148.02 87.6677C150.925 93.5955 152.261 100.269 152.261 107.437V120H165V108.004C165 103.498 163.983 100.069 162.289 97.3596C160.422 94.3737 158.06 92.1309 155.126 90.4997C153.071 89.5444 150.708 88.5981 148.02 87.6677ZM123.376 45.4172C127.055 41.7905 129.137 36.9676 129.137 30.0748C129.137 23.3498 127.08 18.5198 123.34 14.7912C120.828 12.2873 117.813 10.5358 114.055 9.65464C114.273 10.2171 114.48 10.7844 114.676 11.3566C116.643 17.0797 117.537 23.3624 117.537 30.0748C117.537 36.9006 116.646 43.2996 114.711 49.162C114.568 49.597 114.418 50.0283 114.263 50.456C117.947 49.5681 120.909 47.8486 123.376 45.4172ZM109.259 60.1295C108.833 60.1429 108.402 60.1496 107.967 60.1496C106.323 60.1496 104.836 60.055 103.508 59.8658C102.18 59.6767 100.63 59.2669 98.8593 58.6364C101.059 56.359 102.877 53.7713 104.313 50.8733C105.024 49.4388 105.641 47.9282 106.165 46.3416C107.746 41.5499 108.537 36.1276 108.537 30.0748C108.537 24.1481 107.746 18.8834 106.165 14.2808C105.589 12.6049 104.9 10.975 104.098 9.39112C102.697 6.62493 100.951 3.99895 98.8593 1.5132C100.251 1.0088 101.769 0.630498 103.413 0.378299C105.058 0.126099 106.576 0 107.967 0C108.313 0 108.656 0.00427186 108.996 0.0128156C117.385 0.22323 124.284 3.02468 129.694 8.41716C135.323 14.0286 138.137 21.2478 138.137 30.0748C138.137 39.0279 135.323 46.2786 129.694 51.827C124.341 57.1031 117.529 59.8706 109.259 60.1295ZM42.9782 51.9216C48.4809 57.4069 55.7863 60.1496 64.8942 60.1496C73.7492 60.1496 81.0229 57.4069 86.7154 51.9216C92.4078 46.4362 95.2541 39.154 95.2541 30.0748C95.2541 21.1217 92.4078 13.871 86.7154 8.32258C81.0229 2.77419 73.7492 0 64.8942 0C55.9128 0 48.639 2.77419 43.0731 8.32258C37.5071 13.871 34.7241 21.1847 34.7241 30.2639C34.7241 39.217 37.4755 46.4362 42.9782 51.9216ZM75.7099 40.8563C72.8004 43.6305 69.1319 45.0176 64.7045 45.0176C60.4035 45.0176 56.8615 43.599 54.0785 40.7617C51.2955 37.9245 49.904 34.3622 49.904 30.0748C49.904 25.7874 51.2955 22.2251 54.0785 19.3878C56.8615 16.5506 60.4667 15.132 64.8942 15.132C69.1952 15.132 72.8004 16.5506 75.7099 19.3878C78.6194 22.2251 80.0742 25.7874 80.0742 30.0748C80.0742 34.4883 78.6194 38.0821 75.7099 40.8563Z" fill="black"/>
</svg>
