<svg width="300" height="48" viewBox="0 0 300 48" fill="none" xmlns="http://www.w3.org/2000/svg">
<path fill-rule="evenodd" clip-rule="evenodd" d="M284.959 33.6762C284.959 35.1379 285.059 36.5395 281.809 36.5395C280.693 36.5395 278.253 36.5997 278.253 34.4685C278.253 33.129 278.558 33.0675 279.168 28.4395C279.98 22.0445 279.168 27.0987 280.487 15.9548C280.996 11.2628 280.691 10.0482 282.926 10.0482C284.856 10.0482 284.959 11.0216 284.959 11.6917V33.6762ZM296.132 9.55982C296.132 7.7947 296.234 6.3329 297.048 4.14086C297.758 2.37509 298.163 2.00963 298.163 1.4618C298.163 0.668778 297.351 0.487045 296.132 0.487045C288.515 0.487045 295.016 0.791696 283.433 0.791696C281.301 0.791696 274.088 0.487045 271.955 0.487045C271.345 0.487045 269.722 0.366109 269.722 1.58339C269.722 6.45515 271.042 3.65382 271.042 10.9628C271.042 16.9302 268.502 36.2355 267.693 38.0014C267.389 38.5493 266.78 38.7317 266.272 38.8539C265.052 39.1579 264.04 39.037 264.04 40.1934C264.04 41.899 264.445 40.9243 264.445 43.3099C264.445 45.5635 264.04 45.9282 264.04 46.6592C264.04 47.8163 265.562 47.9987 266.272 47.9987C268.304 47.9987 268.607 46.599 269.828 45.4411C272.06 43.3099 275.312 43.117 280.392 43.117C290.247 43.117 292.379 43.9762 292.685 44.101C295.731 45.4411 295.122 48 298.069 48C298.578 48 300 48 300 46.48C300 46.0538 299.898 45.6269 299.898 45.2013C299.797 44.5312 299.797 43.8003 299.797 43.1203C299.797 41.5342 300 41.1107 300 40.4398C300 39.0402 298.679 39.4664 297.155 38.8539C296.344 38.4885 296.14 38.0608 296.14 33.7389V9.55982H296.132ZM242.901 13.1509C242.901 11.8728 242.697 9.7409 245.845 9.7409C248.895 9.7409 248.791 11.8127 248.791 12.8469V32.3352C248.791 33.1877 248.689 35.5021 245.743 35.5021C243.104 35.5021 242.899 33.6141 242.899 32.5784V13.1509H242.901ZM231.726 33.5552C231.726 40.132 237.211 43.6139 246.15 43.6139C259.559 43.6139 259.966 34.8339 259.966 32.9466V9.92594C259.966 6.57675 258.851 0 246.557 0C231.724 0 231.724 9.1957 231.724 12.9103V33.5552H231.726ZM208.768 18.3306C208.768 15.6508 208.463 11.8146 211.309 11.8146C213.34 11.8146 215.473 14.006 215.473 18.0874C215.473 23.1416 213.543 24.8466 211.613 24.8466C208.565 24.8466 208.768 21.0712 208.768 18.3306ZM197.591 29.0482C197.591 39.6443 196.066 37.9392 196.066 41.7755C196.066 42.3246 196.575 43.1163 198.606 43.1163C199.42 43.1163 200.231 42.9941 201.045 42.9339C202.264 42.8117 203.381 42.8725 204.6 42.8725C205.818 42.8725 207.038 42.8725 208.257 42.9339C209.374 42.9941 210.49 43.1163 211.61 43.1163C211.915 43.1163 213.641 43.187 213.641 42.02C213.641 41.0453 212.727 40.5582 212.017 40.0098C209.579 38.1838 208.765 35.7472 208.765 33.3114C208.765 31.4848 208.867 31.7286 212.931 31.3018C218.418 30.6925 226.647 28.6219 226.647 16.0771C226.647 4.26181 221.261 0.486384 200.333 0.486384C196.881 0.486384 196.881 1.64419 196.881 2.19138C196.881 4.14021 197.593 4.99336 197.593 12.9103V29.0482H197.591ZM173.92 13.1509C173.92 11.8728 173.718 9.7409 176.866 9.7409C179.914 9.7409 179.813 11.8127 179.813 12.8469V32.3352C179.813 33.1877 179.711 35.5021 176.765 35.5021C174.123 35.5021 173.92 33.6141 173.92 32.5784V13.1509ZM162.745 33.5552C162.745 40.132 168.231 43.6139 177.171 43.6139C190.581 43.6139 190.987 34.8339 190.987 32.9466V9.92594C190.987 6.57675 189.871 0 177.578 0C162.745 0 162.745 9.1957 162.745 12.9103V33.5552ZM132.471 33.0675C132.471 38.7925 130.947 41.3499 130.947 42.0808C130.947 43.0549 132.166 43.1163 132.876 43.1163C135.619 43.1163 133.893 42.8725 139.479 42.8725C141.308 42.8725 143.34 43.1163 146.59 43.1163C147.506 43.1163 149.435 43.1163 149.435 41.837C149.435 40.5576 147.302 40.5582 145.779 39.2795C144.357 38.1222 143.646 36.1734 143.646 32.3405V15.0416C143.646 12.2402 143.847 11.0216 147.809 11.0216C149.842 11.0216 151.061 11.2661 152.279 12.2402C153.295 13.0332 154.006 14.006 155.937 14.006C157.766 14.006 158.375 13.0319 158.375 11.693C158.375 9.74486 157.969 11.389 157.969 7.0671C157.969 6.33621 158.171 5.66677 158.273 4.93522C158.478 4.08272 158.679 3.23022 158.679 2.31693C158.679 1.70829 158.679 0.489688 155.33 0.489688C149.64 0.489688 150.149 0.794339 143.24 0.794339C135.317 0.794339 141.31 0.489688 133.691 0.489688C132.878 0.489688 130.745 0.550486 130.745 2.00963C130.745 4.62858 132.472 3.41064 132.472 10.8405V33.0675H132.471ZM108.801 18.3306C108.801 15.6508 108.495 11.8146 111.34 11.8146C113.371 11.8146 115.504 14.006 115.504 18.0874C115.504 23.1416 113.574 24.8466 111.645 24.8466C108.597 24.8466 108.8 21.0712 108.8 18.3306H108.801ZM97.6273 29.0482C97.6273 39.6443 96.1031 37.9392 96.1031 41.7755C96.1031 42.3246 96.6107 43.1163 98.6432 43.1163C99.4556 43.1163 100.269 42.9941 101.081 42.9339C102.301 42.8117 103.418 42.8725 104.636 42.8725C105.855 42.8725 107.075 42.8725 108.294 42.9339C109.411 42.9941 110.527 43.1163 111.643 43.1163C111.948 43.1163 113.675 43.187 113.675 42.02C113.675 41.0453 112.761 40.5582 112.049 40.0098C109.612 38.1838 108.799 35.7472 108.799 33.3114C108.799 31.4848 108.9 31.7286 112.964 31.3018C118.45 30.6925 126.678 28.6219 126.678 16.0771C126.678 4.26181 121.293 0.486384 100.366 0.486384C96.9128 0.486384 96.9121 1.64419 96.9121 2.19138C96.9121 4.14021 97.624 4.99336 97.624 12.9103V29.0482H97.6273ZM75.3793 29.596C72.1293 29.596 72.5344 27.7093 72.5344 25.8213C72.5344 24.4203 73.5503 13.0927 75.5821 13.0927C77.1064 13.0927 78.2234 17.9651 78.2234 22.4707V27.8302C78.2234 28.2565 78.0206 29.596 75.3785 29.596H75.3793ZM75.3793 36.0518C78.9361 36.0518 79.9506 37.513 79.9506 38.8533C79.9506 40.7413 78.427 40.4974 78.427 41.837C78.427 42.203 78.9353 43.1163 80.5607 43.1163C81.2719 43.1163 81.9825 42.9941 82.6944 42.9339C83.9126 42.8117 85.2326 42.8725 86.452 42.8725C90.5157 42.8725 88.5863 43.1163 90.8212 43.1163C92.7512 43.1163 93.0539 42.3234 93.0539 41.9592C93.0539 41.533 92.6481 41.3499 92.0387 39.949C91.7346 39.2795 91.2251 37.6954 90.8199 36.6611C88.9909 31.1795 89.2956 28.7435 87.8726 18.3306C85.6396 2.19138 87.7707 0.487706 82.7935 0.487706C76.2921 0.487706 80.4576 0.731558 75.0726 0.731558C71.9244 0.731558 70.1971 0.548504 68.6729 0.548504C63.391 0.548504 65.727 3.77675 64.5073 12.3631C60.6491 40.5582 58.5129 38.9741 58.5129 42.02C58.5129 42.9941 59.5281 43.1163 60.3412 43.1163C61.1542 43.1163 61.9666 42.9941 62.7796 42.9339C63.4915 42.8725 64.3031 42.8725 65.0124 42.8725C68.8731 42.8725 66.0276 43.1163 69.8885 43.1163C72.1213 43.1163 72.7328 42.203 71.8179 41.1067C71.3103 40.436 70.7015 39.8888 70.7015 39.0971C70.7015 38.1222 71.3103 36.0518 75.374 36.0518H75.3793ZM36.4711 36.845C36.4711 39.5246 35.9628 40.011 35.251 41.108C35.048 41.4728 34.1346 43.1176 37.2828 43.1176C38.5029 43.1176 39.7218 42.8738 42.2614 42.8738C43.2766 42.8738 44.1921 42.8738 45.2079 42.9352C46.1221 42.9954 46.9339 43.1176 47.8486 43.1176C48.4586 43.1176 49.677 42.9954 49.677 42.0213C49.677 41.2904 49.0668 40.6203 48.661 39.8901C48.0515 38.7917 47.6457 36.4787 47.6457 35.3818V14.9193C47.6457 12.4841 48.458 11.7532 50.0834 11.7532C51.1998 11.7532 52.0135 12.1794 52.4199 12.5462C53.0295 13.1542 53.2316 13.8249 54.7565 13.8249C55.4671 13.8249 56.4823 13.5804 56.4823 12.4847C56.4823 10.8412 55.9747 10.0495 55.9747 5.96877C55.9747 2.802 56.1784 4.14154 56.1784 1.82725C56.1784 1.3402 55.9747 0.487706 53.8417 0.487706C46.1215 0.487706 53.4353 0.913952 42.3624 0.913952C33.1179 0.913952 35.7586 0.487706 31.289 0.487706C28.8512 0.487706 28.6478 1.28072 28.6478 2.00765C28.6478 2.55616 28.7494 3.04254 28.7494 3.5937C28.8512 4.32062 28.8506 5.05482 28.8506 5.78506C28.8506 6.94286 28.8506 8.09803 28.6478 9.2565C28.4448 10.292 28.2412 11.2668 28.2412 12.3625C28.2412 13.7628 29.4606 13.8243 30.0702 13.8243C31.1866 13.8243 31.4925 13.1535 31.9996 12.6671C32.6097 12.0578 33.2191 11.7538 34.3361 11.7538C36.2674 11.7538 36.4698 12.7279 36.4698 14.0067V36.8435L36.4711 36.845ZM0 27.0386C0 34.8928 1.8296 43.616 16.2549 43.616C24.6865 43.616 25.0929 41.5938 25.0929 40.1928C25.0929 39.1571 24.9911 38.1222 24.9911 37.1475C24.9911 36.1728 25.0929 35.1987 25.0929 34.103C25.0929 33.6762 25.0929 32.8243 23.6705 32.8243C22.6553 32.8243 21.9434 33.3114 21.5368 33.6762C20.7252 34.3462 19.7086 34.9589 17.5755 34.9589C11.0741 34.9589 11.1759 29.4176 11.1759 24.6675V18.9386C11.1759 14.1884 11.0735 10.7176 16.0513 10.7176C18.1849 10.7176 19.2035 11.3269 20.1144 11.9356C20.8262 12.3618 21.8416 13.0319 23.0604 13.0319C23.8735 13.0319 25.0963 12.5449 25.0963 10.7189C25.0963 9.68406 24.6897 9.37941 24.6897 6.63821C24.6897 3.16744 25.1973 3.04518 25.1973 2.31494C25.1973 0.548504 20.2195 0.00198254 15.851 0.00198254C5.68908 0 0 4.38472 0 17.9651V27.0386Z" fill="#006532"/>
</svg>