<svg width="96" height="96" viewBox="0 0 96 96" fill="none" xmlns="http://www.w3.org/2000/svg">
<mask id="path-1-inside-1_17_102" fill="white">
<path fill-rule="evenodd" clip-rule="evenodd" d="M48 96C74.5097 96 96 74.5097 96 48C96 21.4903 74.5097 0 48 0C21.4903 0 0 21.4903 0 48C0 74.5097 21.4903 96 48 96ZM83.3748 19.0424C81.6398 16.9254 79.7186 14.967 77.636 13.1922C72.9607 13.7301 68.4915 14.6052 64.2934 15.769C71.5166 20.8839 77.608 29.2951 81.8069 39.7969C82.8575 34.2814 83.4286 28.4034 83.4286 22.2857C83.4286 21.1968 83.4105 20.1154 83.3748 19.0424ZM48 2.28571C56.9592 2.28571 65.3164 4.86299 72.3707 9.31659C67.6267 10.1046 63.1 11.2305 58.8593 12.651C55.4062 11.11 51.7638 10.2857 48 10.2857C44.2362 10.2857 40.5938 11.11 37.1407 12.651C32.9 11.2305 28.3733 10.1046 23.6293 9.31659C30.6836 4.86299 39.0408 2.28571 48 2.28571ZM23.6293 86.6834C30.6836 91.137 39.0408 93.7143 48 93.7143C56.9592 93.7143 65.3164 91.137 72.3707 86.6834C67.6267 85.8954 63.1 84.7695 58.8593 83.349C55.4062 84.89 51.7638 85.7143 48 85.7143C44.2362 85.7143 40.5938 84.89 37.1407 83.349C32.9 84.7695 28.3733 85.8954 23.6293 86.6834ZM31.7066 80.231C27.5085 81.3948 23.0393 82.2699 18.364 82.8078C16.2814 81.033 14.3602 79.0746 12.6252 76.9576C12.5895 75.8846 12.5714 74.8032 12.5714 73.7143C12.5714 67.5966 13.1425 61.7187 14.1931 56.2031C18.392 66.7049 24.4834 75.1161 31.7066 80.231ZM43.8887 80.7353C45.2505 81.006 46.6232 81.1429 48 81.1429C49.3768 81.1429 50.7495 81.006 52.1114 80.7353C50.6973 80.1078 49.3258 79.4448 48 78.7483C46.6742 79.4448 45.3027 80.1078 43.8887 80.7353ZM43.2665 75.9949C41.4091 76.8646 39.4626 77.6702 37.4359 78.405C32.3637 75.7187 27.6158 71.0936 23.5825 64.698C20.5744 59.9281 18.0507 54.286 16.1815 48C18.0507 41.714 20.5744 36.0719 23.5825 31.302C27.6158 24.9064 32.3637 20.2813 37.4359 17.595C39.4626 18.3298 41.4091 19.1354 43.2665 20.0051C32.0553 27.2196 25.1429 37.1007 25.1429 48C25.1429 58.8993 32.0553 68.7804 43.2665 75.9949ZM52.7336 75.9949C54.5909 76.8646 56.5374 77.6702 58.5641 78.405C63.6363 75.7187 68.3842 71.0936 72.4175 64.698C75.4256 59.9281 77.9493 54.286 79.8185 48C77.9493 41.714 75.4256 36.0719 72.4175 31.302C68.3842 24.9064 63.6363 20.2813 58.5641 17.595C56.5374 18.3298 54.5909 19.1354 52.7336 20.0051C63.9447 27.2196 70.8571 37.1007 70.8571 48C70.8571 58.8993 63.9447 68.7804 52.7336 75.9949ZM48 22.4707C48.6271 22.8334 49.2409 23.2041 49.8409 23.5825C60.5415 30.3306 66.2857 39.0794 66.2857 48C66.2857 56.9206 60.5415 65.6694 49.8409 72.4175C49.2409 72.7959 48.6271 73.1666 48 73.5293C47.3729 73.1666 46.7591 72.7959 46.1591 72.4175C35.4585 65.6694 29.7143 56.9206 29.7143 48C29.7143 39.0794 35.4585 30.3306 46.1591 23.5825C46.7591 23.2041 47.3729 22.8334 48 22.4707ZM48 17.2517C49.3258 16.5552 50.6973 15.8922 52.1114 15.2647C50.7495 14.994 49.3768 14.8571 48 14.8571C46.6232 14.8571 45.2505 14.994 43.8887 15.2647C45.3027 15.8922 46.6742 16.5552 48 17.2517ZM18.364 13.1922C16.2814 14.967 14.3602 16.9254 12.6252 19.0424C12.5895 20.1154 12.5714 21.1968 12.5714 22.2857C12.5714 28.4034 13.1425 34.2814 14.1931 39.7969C18.392 29.2951 24.4834 20.8839 31.7067 15.769C27.5085 14.6052 23.0393 13.7301 18.364 13.1922ZM83.3748 76.9576C81.6398 79.0746 79.7186 81.033 77.636 82.8078C72.9607 82.2699 68.4915 81.3948 64.2934 80.231C71.5166 75.1161 77.608 66.7049 81.8069 56.2031C82.8575 61.7186 83.4286 67.5966 83.4286 73.7143C83.4286 74.8032 83.4105 75.8846 83.3748 76.9576ZM11.4236 48C9.50197 41.1373 8.32594 33.6332 8.05852 25.7463C4.38129 32.3321 2.28571 39.9213 2.28571 48C2.28571 56.0787 4.38129 63.6679 8.05852 70.2537C8.32594 62.3668 9.50197 54.8627 11.4236 48ZM84.5764 48C86.498 41.1373 87.6741 33.6332 87.9415 25.7463C91.6187 32.3321 93.7143 39.9213 93.7143 48C93.7143 56.0787 91.6187 63.6679 87.9415 70.2537C87.6741 62.3668 86.498 54.8627 84.5764 48ZM42.7935 61.4866V49.1585H43.9654H50.4107C51.942 49.1585 53.1842 49.4085 54.1373 49.9085C55.0904 50.4085 55.7935 51.1272 56.2467 52.0647C56.6998 52.9866 56.9263 54.0804 56.9263 55.346C56.9263 57.221 56.3404 58.7132 55.1685 59.8225C53.9967 60.9319 52.3404 61.4866 50.1998 61.4866H42.7935ZM49.567 45.5725H44.0123H42.7935V34.6975H49.4498C51.6685 34.6975 53.317 35.1272 54.3951 35.9866C55.4888 36.8304 56.0357 38.1897 56.0357 40.0647C56.0357 41.7991 55.442 43.1507 54.2545 44.1194C53.067 45.0882 51.5045 45.5725 49.567 45.5725ZM56.481 46.6975C56.1705 46.8718 55.8475 47.0308 55.5121 47.1748C56.4259 47.4127 57.2411 47.7771 57.9576 48.2679C59.0982 49.0491 59.9654 50.0491 60.5592 51.2679C61.1685 52.4866 61.4732 53.8304 61.4732 55.2991C61.4732 58.5022 60.442 60.9475 58.3795 62.635C56.3326 64.3069 53.606 65.1429 50.1998 65.1429H42.7935H39.981H38.2467V31.0179H49.4498C52.9342 31.0179 55.6607 31.7444 57.6295 33.1975C59.5982 34.635 60.5826 36.9397 60.5826 40.1116C60.5826 41.5179 60.2232 42.7913 59.5045 43.9319C58.7857 45.0569 57.7779 45.9788 56.481 46.6975Z"/>
</mask>
<path fill-rule="evenodd" clip-rule="evenodd" d="M48 96C74.5097 96 96 74.5097 96 48C96 21.4903 74.5097 0 48 0C21.4903 0 0 21.4903 0 48C0 74.5097 21.4903 96 48 96ZM83.3748 19.0424C81.6398 16.9254 79.7186 14.967 77.636 13.1922C72.9607 13.7301 68.4915 14.6052 64.2934 15.769C71.5166 20.8839 77.608 29.2951 81.8069 39.7969C82.8575 34.2814 83.4286 28.4034 83.4286 22.2857C83.4286 21.1968 83.4105 20.1154 83.3748 19.0424ZM48 2.28571C56.9592 2.28571 65.3164 4.86299 72.3707 9.31659C67.6267 10.1046 63.1 11.2305 58.8593 12.651C55.4062 11.11 51.7638 10.2857 48 10.2857C44.2362 10.2857 40.5938 11.11 37.1407 12.651C32.9 11.2305 28.3733 10.1046 23.6293 9.31659C30.6836 4.86299 39.0408 2.28571 48 2.28571ZM23.6293 86.6834C30.6836 91.137 39.0408 93.7143 48 93.7143C56.9592 93.7143 65.3164 91.137 72.3707 86.6834C67.6267 85.8954 63.1 84.7695 58.8593 83.349C55.4062 84.89 51.7638 85.7143 48 85.7143C44.2362 85.7143 40.5938 84.89 37.1407 83.349C32.9 84.7695 28.3733 85.8954 23.6293 86.6834ZM31.7066 80.231C27.5085 81.3948 23.0393 82.2699 18.364 82.8078C16.2814 81.033 14.3602 79.0746 12.6252 76.9576C12.5895 75.8846 12.5714 74.8032 12.5714 73.7143C12.5714 67.5966 13.1425 61.7187 14.1931 56.2031C18.392 66.7049 24.4834 75.1161 31.7066 80.231ZM43.8887 80.7353C45.2505 81.006 46.6232 81.1429 48 81.1429C49.3768 81.1429 50.7495 81.006 52.1114 80.7353C50.6973 80.1078 49.3258 79.4448 48 78.7483C46.6742 79.4448 45.3027 80.1078 43.8887 80.7353ZM43.2665 75.9949C41.4091 76.8646 39.4626 77.6702 37.4359 78.405C32.3637 75.7187 27.6158 71.0936 23.5825 64.698C20.5744 59.9281 18.0507 54.286 16.1815 48C18.0507 41.714 20.5744 36.0719 23.5825 31.302C27.6158 24.9064 32.3637 20.2813 37.4359 17.595C39.4626 18.3298 41.4091 19.1354 43.2665 20.0051C32.0553 27.2196 25.1429 37.1007 25.1429 48C25.1429 58.8993 32.0553 68.7804 43.2665 75.9949ZM52.7336 75.9949C54.5909 76.8646 56.5374 77.6702 58.5641 78.405C63.6363 75.7187 68.3842 71.0936 72.4175 64.698C75.4256 59.9281 77.9493 54.286 79.8185 48C77.9493 41.714 75.4256 36.0719 72.4175 31.302C68.3842 24.9064 63.6363 20.2813 58.5641 17.595C56.5374 18.3298 54.5909 19.1354 52.7336 20.0051C63.9447 27.2196 70.8571 37.1007 70.8571 48C70.8571 58.8993 63.9447 68.7804 52.7336 75.9949ZM48 22.4707C48.6271 22.8334 49.2409 23.2041 49.8409 23.5825C60.5415 30.3306 66.2857 39.0794 66.2857 48C66.2857 56.9206 60.5415 65.6694 49.8409 72.4175C49.2409 72.7959 48.6271 73.1666 48 73.5293C47.3729 73.1666 46.7591 72.7959 46.1591 72.4175C35.4585 65.6694 29.7143 56.9206 29.7143 48C29.7143 39.0794 35.4585 30.3306 46.1591 23.5825C46.7591 23.2041 47.3729 22.8334 48 22.4707ZM48 17.2517C49.3258 16.5552 50.6973 15.8922 52.1114 15.2647C50.7495 14.994 49.3768 14.8571 48 14.8571C46.6232 14.8571 45.2505 14.994 43.8887 15.2647C45.3027 15.8922 46.6742 16.5552 48 17.2517ZM18.364 13.1922C16.2814 14.967 14.3602 16.9254 12.6252 19.0424C12.5895 20.1154 12.5714 21.1968 12.5714 22.2857C12.5714 28.4034 13.1425 34.2814 14.1931 39.7969C18.392 29.2951 24.4834 20.8839 31.7067 15.769C27.5085 14.6052 23.0393 13.7301 18.364 13.1922ZM83.3748 76.9576C81.6398 79.0746 79.7186 81.033 77.636 82.8078C72.9607 82.2699 68.4915 81.3948 64.2934 80.231C71.5166 75.1161 77.608 66.7049 81.8069 56.2031C82.8575 61.7186 83.4286 67.5966 83.4286 73.7143C83.4286 74.8032 83.4105 75.8846 83.3748 76.9576ZM11.4236 48C9.50197 41.1373 8.32594 33.6332 8.05852 25.7463C4.38129 32.3321 2.28571 39.9213 2.28571 48C2.28571 56.0787 4.38129 63.6679 8.05852 70.2537C8.32594 62.3668 9.50197 54.8627 11.4236 48ZM84.5764 48C86.498 41.1373 87.6741 33.6332 87.9415 25.7463C91.6187 32.3321 93.7143 39.9213 93.7143 48C93.7143 56.0787 91.6187 63.6679 87.9415 70.2537C87.6741 62.3668 86.498 54.8627 84.5764 48ZM42.7935 61.4866V49.1585H43.9654H50.4107C51.942 49.1585 53.1842 49.4085 54.1373 49.9085C55.0904 50.4085 55.7935 51.1272 56.2467 52.0647C56.6998 52.9866 56.9263 54.0804 56.9263 55.346C56.9263 57.221 56.3404 58.7132 55.1685 59.8225C53.9967 60.9319 52.3404 61.4866 50.1998 61.4866H42.7935ZM49.567 45.5725H44.0123H42.7935V34.6975H49.4498C51.6685 34.6975 53.317 35.1272 54.3951 35.9866C55.4888 36.8304 56.0357 38.1897 56.0357 40.0647C56.0357 41.7991 55.442 43.1507 54.2545 44.1194C53.067 45.0882 51.5045 45.5725 49.567 45.5725ZM56.481 46.6975C56.1705 46.8718 55.8475 47.0308 55.5121 47.1748C56.4259 47.4127 57.2411 47.7771 57.9576 48.2679C59.0982 49.0491 59.9654 50.0491 60.5592 51.2679C61.1685 52.4866 61.4732 53.8304 61.4732 55.2991C61.4732 58.5022 60.442 60.9475 58.3795 62.635C56.3326 64.3069 53.606 65.1429 50.1998 65.1429H42.7935H39.981H38.2467V31.0179H49.4498C52.9342 31.0179 55.6607 31.7444 57.6295 33.1975C59.5982 34.635 60.5826 36.9397 60.5826 40.1116C60.5826 41.5179 60.2232 42.7913 59.5045 43.9319C58.7857 45.0569 57.7779 45.9788 56.481 46.6975Z" fill="black" stroke="black" stroke-width="2" mask="url(#path-1-inside-1_17_102)"/>
</svg>
