<svg width="96" height="96" viewBox="0 0 96 96" fill="none" xmlns="http://www.w3.org/2000/svg">
<mask id="path-1-inside-1_17_101" fill="white">
<path fill-rule="evenodd" clip-rule="evenodd" d="M77.8176 12.5961L78.0067 12.7573C80.1151 14.5542 82.0602 16.5369 83.8168 18.6802L83.9395 18.8299L83.9459 19.0234C83.9818 20.1028 84 21.1905 84 22.2857C84 28.4388 83.4257 34.3526 82.3682 39.9038L82.0023 41.8248L81.2763 40.009C77.1062 29.5794 71.0732 21.2701 63.9631 16.2354L62.9809 15.5399L64.1407 15.2183C68.3682 14.0463 72.8667 13.1657 77.5707 12.6245L77.8176 12.5961ZM73.9446 9.63442L72.4644 9.8803C67.749 10.6636 63.2517 11.7823 59.0408 13.1929L58.8297 13.2636L58.6265 13.1729C55.2418 11.6624 51.6785 10.8571 48 10.8571C44.3215 10.8571 40.7582 11.6624 37.3736 13.1729L37.1703 13.2636L36.9592 13.1929C32.7483 11.7823 28.251 10.6636 23.5356 9.88029L22.0554 9.63442L23.3242 8.8334C30.4671 4.32386 38.9297 1.71429 48 1.71429C57.0703 1.71429 65.5329 4.32386 72.6758 8.8334L73.9446 9.63442ZM22.0554 86.3656L23.5356 86.1197C28.251 85.3364 32.7483 84.2177 36.9592 82.8071L37.1703 82.7364L37.3736 82.8271C40.7582 84.3376 44.3215 85.1429 48 85.1429C51.6785 85.1429 55.2418 84.3376 58.6265 82.8271L58.8297 82.7364L59.0408 82.8071C63.2517 84.2177 67.749 85.3364 72.4644 86.1197L73.9446 86.3656L72.6758 87.1666C65.5329 91.6761 57.0703 94.2857 48 94.2857C38.9297 94.2857 30.4671 91.6761 23.3242 87.1666L22.0554 86.3656ZM18.1824 83.4039L17.9933 83.2427C15.8849 81.4458 13.9398 79.4631 12.1832 77.3198L12.0605 77.1701L12.0541 76.9766C12.0182 75.8972 12 74.8096 12 73.7143C12 67.5612 12.5743 61.6475 13.6318 56.0962L13.9977 54.1752L14.7237 55.991C18.8938 66.4206 24.9268 74.7299 32.0369 79.7646L33.0191 80.4601L31.8593 80.7817C27.6318 81.9537 23.1333 82.8343 18.4293 83.3755L18.1824 83.4039ZM42.0091 80.9442L43.6569 80.213C45.0597 79.5904 46.4199 78.9329 47.7343 78.2424L48 78.1028L48.2658 78.2424C49.5801 78.9329 50.9403 79.5904 52.3431 80.213L53.9909 80.9442L52.2228 81.2957C50.8248 81.5737 49.4148 81.7143 48 81.7143C46.5852 81.7143 45.1752 81.5737 43.7772 81.2957L42.0091 80.9442ZM37.3924 79.0285L37.1684 78.9099C31.988 76.1663 27.1721 71.4614 23.0991 65.0028C20.0602 60.1839 17.5161 54.493 15.6338 48.1629L15.5854 48L15.6338 47.8371C17.5161 41.507 20.0602 35.8161 23.0991 30.9972C27.1721 24.5386 31.988 19.8337 37.1684 17.0901L37.3924 16.9715L37.6306 17.0578C39.673 17.7983 41.6354 18.6103 43.5088 19.4876L44.4452 19.9261L43.5757 20.4856C32.4616 27.6378 25.7143 37.3627 25.7143 48C25.7143 58.6373 32.4616 68.3622 43.5757 75.5144L44.4452 76.0739L43.5088 76.5124C41.6354 77.3897 39.673 78.2018 37.6306 78.9422L37.3924 79.0285ZM58.6076 79.0285L58.3694 78.9422C56.327 78.2018 54.3646 77.3897 52.4912 76.5124L51.5548 76.0739L52.4243 75.5144C63.5384 68.3622 70.2857 58.6373 70.2857 48C70.2857 37.3627 63.5384 27.6378 52.4243 20.4856L51.5548 19.9261L52.4912 19.4876C54.3646 18.6103 56.327 17.7983 58.3694 17.0578L58.6076 16.9715L58.8316 17.0901C64.012 19.8337 68.8279 24.5386 72.9009 30.9972C75.9398 35.8161 78.4839 41.507 80.3662 47.8371L80.4146 48L80.3662 48.1629C78.4839 54.493 75.9398 60.1839 72.9009 65.0028C68.8279 71.4614 64.012 76.1663 58.8316 78.9099L58.6076 79.0285ZM48 21.8106L48.2861 21.9761C48.9194 22.3423 49.5394 22.7168 50.1457 23.0991C60.9445 29.9092 66.8571 38.8146 66.8571 48C66.8571 57.1854 60.9445 66.0908 50.1457 72.9009C49.5394 73.2832 48.9194 73.6577 48.2861 74.0239L48 74.1894L47.7139 74.0239C47.0806 73.6577 46.4606 73.2832 45.8543 72.9009C35.0555 66.0908 29.1429 57.1854 29.1429 48C29.1429 38.8146 35.0555 29.9092 45.8543 23.0991C46.4606 22.7168 47.0806 22.3423 47.7139 21.9761L48 21.8106ZM53.9909 15.0558L52.3431 15.787C50.9403 16.4096 49.5801 17.0671 48.2657 17.7576L48 17.8972L47.7343 17.7576C46.4199 17.0671 45.0597 16.4096 43.6569 15.787L42.0091 15.0558L43.7772 14.7043C45.1752 14.4263 46.5852 14.2857 48 14.2857C49.4148 14.2857 50.8248 14.4263 52.2228 14.7043L53.9909 15.0558ZM12.0605 18.8299L12.1832 18.6802C13.9398 16.5369 15.8849 14.5542 17.9933 12.7573L18.1824 12.5961L18.4293 12.6245C23.1333 13.1657 27.6318 14.0463 31.8593 15.2183L33.0191 15.5399L32.0369 16.2354C24.9268 21.2701 18.8938 29.5794 14.7237 40.009L13.9977 41.8248L13.6318 39.9038C12.5743 34.3526 12 28.4388 12 22.2857C12 21.1905 12.0182 20.1028 12.0541 19.0234L12.0605 18.8299ZM77.8176 83.4039L77.5707 83.3755C72.8667 82.8343 68.3682 81.9537 64.1407 80.7817L62.981 80.4601L63.9631 79.7646C71.0732 74.7299 77.1062 66.4206 81.2763 55.991L82.0023 54.1752L82.3682 56.0962C83.4257 61.6474 84 67.5612 84 73.7143C84 74.8096 83.9818 75.8972 83.9459 76.9766L83.9395 77.1701L83.8168 77.3198C82.0602 79.4631 80.1151 81.4458 78.0067 83.2427L77.8176 83.4039ZM8.56008 23.6758L8.62962 25.7269C8.89555 33.5698 10.0649 41.0286 11.9739 47.8459L12.017 48L11.9739 48.1541C10.0649 54.9714 8.89555 62.4302 8.62962 70.2731L8.56008 72.3242L7.5596 70.5323C3.83605 63.8635 1.71429 56.1787 1.71429 48C1.71429 39.8213 3.83605 32.1365 7.5596 25.4677L8.56008 23.6758ZM87.4399 23.6758L88.4404 25.4677C92.164 32.1365 94.2857 39.8213 94.2857 48C94.2857 56.1787 92.164 63.8635 88.4404 70.5323L87.4399 72.3242L87.3704 70.2731C87.1045 62.4302 85.9351 54.9714 84.0262 48.1541L83.983 48L84.0262 47.8459C85.9351 41.0286 87.1045 33.5698 87.3704 25.7269L87.4399 23.6758ZM42.2221 48.5871H50.4107C51.9978 48.5871 53.3405 48.8452 54.4027 49.4025C55.46 49.9571 56.2522 50.7638 56.7605 51.8148C57.2594 52.8307 57.4978 54.0138 57.4978 55.346C57.4978 57.3502 56.8659 59.0025 55.5614 60.2375C54.2525 61.4766 52.4376 62.058 50.1998 62.058H42.2221V48.5871ZM56.2467 52.0647C55.7935 51.1272 55.0904 50.4085 54.1373 49.9085C53.1842 49.4085 51.942 49.1585 50.4107 49.1585H42.7935V61.4866H50.1998C52.3404 61.4866 53.9967 60.9319 55.1685 59.8225C56.3404 58.7132 56.9263 57.221 56.9263 55.346C56.9263 54.0804 56.6998 52.9866 56.2467 52.0647ZM42.2221 46.144V34.1261H49.4498C51.7224 34.1261 53.5232 34.5627 54.7478 35.537C56.0254 36.5247 56.6071 38.0824 56.6071 40.0647C56.6071 41.9453 55.9548 43.4698 54.6157 44.5622C53.3017 45.6342 51.6005 46.144 49.567 46.144H42.2221ZM54.3951 35.9866C53.317 35.1272 51.6685 34.6975 49.4498 34.6975H42.7935V45.5725H49.567C51.5045 45.5725 53.067 45.0882 54.2545 44.1194C55.442 43.1507 56.0357 41.7991 56.0357 40.0647C56.0357 38.1897 55.4888 36.8304 54.3951 35.9866ZM53.7541 47.3074L55.2868 46.6497C55.6041 46.5135 55.9089 46.3633 56.2015 46.1992L56.204 46.1977C57.4267 45.5201 58.36 44.6614 59.0221 43.6256C59.6801 42.5806 60.0112 41.4142 60.0112 40.1116C60.0112 37.0618 59.0711 34.9577 57.2925 33.659L57.2901 33.6573C55.4535 32.3017 52.8621 31.5893 49.4498 31.5893H38.8181V64.5714H50.1998C53.5127 64.5714 56.0992 63.7596 58.0176 62.1928C59.9204 60.6359 60.9018 58.3691 60.9018 55.2991C60.9018 53.912 60.6147 52.6567 60.0481 51.5234L60.0454 51.5181C59.4959 50.3902 58.6953 49.4658 57.6347 48.7393C56.9772 48.289 56.2236 47.9505 55.3681 47.7278L53.7541 47.3074ZM58.3795 62.635C60.442 60.9475 61.4732 58.5022 61.4732 55.2991C61.4732 53.8304 61.1685 52.4866 60.5592 51.2679C59.9654 50.0491 59.0982 49.0491 57.9576 48.2679C57.4601 47.9271 56.915 47.6473 56.3223 47.4284C56.0615 47.332 55.7914 47.2475 55.5121 47.1748C55.7756 47.0617 56.0315 46.9392 56.2797 46.8074C56.3474 46.7715 56.4145 46.7349 56.481 46.6975C57.7779 45.9788 58.7857 45.0569 59.5045 43.9319C60.2232 42.7913 60.5826 41.5179 60.5826 40.1116C60.5826 36.9397 59.5982 34.635 57.6295 33.1975C55.6607 31.7444 52.9342 31.0179 49.4498 31.0179H38.2467V65.1429H50.1998C53.606 65.1429 56.3326 64.3069 58.3795 62.635ZM37.6752 65.6352C32.4544 60.2405 29.7143 54.1613 29.7143 48C29.7143 39.0794 35.4585 30.3306 46.1591 23.5825C46.7591 23.2041 47.3729 22.8334 48 22.4707C48.6271 22.8334 49.2409 23.2041 49.8409 23.5825C60.5415 30.3306 66.2857 39.0794 66.2857 48C66.2857 56.9206 60.5415 65.6694 49.8409 72.4175C49.2409 72.7959 48.6271 73.1666 48 73.5293C47.3729 73.1666 46.7591 72.7959 46.1591 72.4175C42.8853 70.3529 40.0753 68.1011 37.7519 65.7143C37.7263 65.688 37.7007 65.6616 37.6752 65.6352ZM48 95.4286C74.1941 95.4286 95.4286 74.1941 95.4286 48C95.4286 21.8059 74.1941 0.571429 48 0.571429C21.8059 0.571429 0.571429 21.8059 0.571429 48C0.571429 74.1941 21.8059 95.4286 48 95.4286ZM64.8871 16.1987C71.6264 21.1827 77.3445 29.0574 81.4072 38.8173C81.5423 39.1417 81.6755 39.4683 81.8069 39.7969C81.8729 39.4504 81.937 39.1024 81.9992 38.753C82.927 33.5418 83.4286 28.019 83.4286 22.2857C83.4286 21.1968 83.4105 20.1154 83.3748 19.0424C81.6398 16.9254 79.7186 14.967 77.636 13.1922C73.2234 13.6998 68.9944 14.5079 65.0037 15.5755C64.766 15.6391 64.5293 15.7036 64.2934 15.769C64.4921 15.9098 64.69 16.053 64.8871 16.1987ZM24.3649 8.86181C31.2617 4.68801 39.3503 2.28571 48 2.28571C56.6497 2.28571 64.7383 4.68801 71.6351 8.86181C71.8818 9.01115 72.1271 9.16275 72.3707 9.31659C72.0869 9.36374 71.8039 9.4121 71.5216 9.46165C67.086 10.2404 62.8463 11.3155 58.8593 12.651C55.4062 11.11 51.7638 10.2857 48 10.2857C44.2362 10.2857 40.5938 11.11 37.1407 12.651C33.1537 11.3155 28.914 10.2404 24.4784 9.46165C24.1961 9.41209 23.9131 9.36374 23.6293 9.31659C23.8729 9.16275 24.1182 9.01115 24.3649 8.86181ZM71.6351 87.1382C64.7383 91.312 56.6497 93.7143 48 93.7143C39.3503 93.7143 31.2617 91.312 24.3649 87.1382C24.1182 86.9889 23.8729 86.8373 23.6293 86.6834C23.9131 86.6363 24.1961 86.5879 24.4784 86.5384C28.914 85.7596 33.1537 84.6845 37.1407 83.349C40.5938 84.89 44.2362 85.7143 48 85.7143C51.7638 85.7143 55.4062 84.89 58.8593 83.349C62.8463 84.6845 67.086 85.7596 71.5216 86.5384C71.8039 86.5879 72.0869 86.6363 72.3707 86.6834C72.1271 86.8373 71.8818 86.9889 71.6351 87.1382ZM31.7066 80.231C31.5079 80.0902 31.31 79.947 31.1129 79.8013C24.3736 74.8173 18.6556 66.9426 14.5928 57.1827C14.4577 56.8583 14.3245 56.5317 14.1931 56.2031C14.1271 56.5497 14.063 56.8976 14.0008 57.247C13.073 62.4582 12.5714 67.981 12.5714 73.7143C12.5714 74.8032 12.5895 75.8846 12.6252 76.9576C14.3602 79.0746 16.2814 81.033 18.364 82.8078C22.7766 82.3002 27.0056 81.4921 30.9963 80.4245C31.234 80.3609 31.4707 80.2964 31.7066 80.231ZM51.1087 80.9101C50.0767 81.0649 49.0395 81.1429 48 81.1429C46.9605 81.1429 45.9233 81.0649 44.8913 80.9101C44.5565 80.8599 44.2223 80.8016 43.8887 80.7353C44.1974 80.5983 44.5041 80.4596 44.8088 80.3192C45.8994 79.8167 46.9637 79.2927 48 78.7483C49.0363 79.2927 50.1006 79.8167 51.1913 80.3192C51.4959 80.4596 51.8026 80.5983 52.1114 80.7353C51.7777 80.8016 51.4435 80.8599 51.1087 80.9101ZM42.653 76.2783C42.8586 76.1846 43.063 76.0902 43.2665 75.9949C43.0771 75.8731 42.889 75.7505 42.7021 75.6271C31.8238 68.4463 25.1429 58.7152 25.1429 48C25.1429 37.2848 31.8238 27.5537 42.7021 20.3729C42.889 20.2495 43.0771 20.1269 43.2665 20.0051C43.063 19.9098 42.8586 19.8154 42.653 19.7217C40.9818 18.9598 39.2407 18.2493 37.4359 17.595C32.3637 20.2813 27.6158 24.9064 23.5825 31.302C20.5744 36.0719 18.0507 41.714 16.1815 48C18.0507 54.286 20.5744 59.9281 23.5825 64.698C27.6158 71.0936 32.3637 75.7187 37.4359 78.405C39.2407 77.7506 40.9818 77.0402 42.653 76.2783ZM79.8185 48C77.9493 54.286 75.4256 59.9281 72.4175 64.698C68.3842 71.0936 63.6363 75.7187 58.5641 78.405C56.7593 77.7506 55.0182 77.0402 53.347 76.2783C53.1415 76.1846 52.937 76.0902 52.7336 75.9949C52.9229 75.8731 53.111 75.7505 53.2979 75.6271C64.1762 68.4463 70.8571 58.7152 70.8571 48C70.8571 37.2848 64.1762 27.5537 53.2979 20.3729C53.111 20.2495 52.9229 20.1269 52.7336 20.0051C52.937 19.9098 53.1415 19.8153 53.347 19.7216C55.0182 18.9598 56.7593 18.2493 58.5641 17.595C63.6363 20.2813 68.3842 24.9064 72.4175 31.302C75.4256 36.0719 77.9493 41.714 79.8185 48ZM52.1114 15.2647C51.7777 15.1984 51.4435 15.1401 51.1087 15.0899C50.0767 14.9351 49.0395 14.8571 48 14.8571C46.9605 14.8571 45.9233 14.9351 44.8913 15.0899C44.5565 15.1401 44.2223 15.1984 43.8887 15.2647C44.1974 15.4017 44.5041 15.5404 44.8088 15.6808C45.8994 16.1833 46.9637 16.7073 48 17.2517C49.0363 16.7073 50.1006 16.1833 51.1913 15.6808C51.4959 15.5404 51.8026 15.4017 52.1114 15.2647ZM31.1129 16.1987C24.3736 21.1827 18.6556 29.0574 14.5928 38.8173C14.4577 39.1417 14.3245 39.4683 14.1931 39.7969C14.1271 39.4504 14.063 39.1024 14.0008 38.753C13.073 33.5418 12.5714 28.019 12.5714 22.2857C12.5714 21.1968 12.5895 20.1154 12.6252 19.0424C14.3602 16.9254 16.2814 14.967 18.364 13.1922C22.7766 13.6998 27.0056 14.5079 30.9963 15.5755C31.234 15.6391 31.4707 15.7036 31.7067 15.769C31.5079 15.9098 31.31 16.053 31.1129 16.1987ZM83.3748 76.9576C83.4105 75.8846 83.4286 74.8032 83.4286 73.7143C83.4286 67.981 82.927 62.4582 81.9992 57.247C81.937 56.8976 81.8729 56.5497 81.8069 56.2031C81.6755 56.5317 81.5423 56.8583 81.4072 57.1827C77.3445 66.9426 71.6264 74.8173 64.8871 79.8013C64.69 79.947 64.4921 80.0902 64.2934 80.231C64.5293 80.2964 64.7661 80.3609 65.0037 80.4245C68.9944 81.4921 73.2234 82.3002 77.636 82.8078C79.7186 81.033 81.6398 79.0746 83.3748 76.9576ZM8.05852 25.7463C7.8767 26.0719 7.69874 26.4 7.52472 26.7305C4.17918 33.0838 2.28571 40.3208 2.28571 48C2.28571 55.6792 4.17918 62.9162 7.52472 69.2695C7.69874 69.6 7.8767 69.9281 8.05852 70.2537C8.07114 69.8815 8.08579 69.5102 8.10244 69.1397C8.43861 61.6599 9.59267 54.5388 11.4236 48C9.59267 41.4612 8.43861 34.3401 8.10244 26.8604C8.08579 26.4899 8.07114 26.1185 8.05852 25.7463ZM87.8976 69.1397C87.5614 61.6599 86.4073 54.5388 84.5764 48C86.4073 41.4612 87.5614 34.3401 87.8976 26.8604C87.9142 26.4899 87.9289 26.1185 87.9415 25.7463C88.1233 26.0719 88.3013 26.4 88.4753 26.7305C91.8208 33.0838 93.7143 40.3208 93.7143 48C93.7143 55.6792 91.8208 62.9162 88.4753 69.2695C88.3013 69.6 88.1233 69.9281 87.9415 70.2537C87.9289 69.8815 87.9142 69.5101 87.8976 69.1397ZM96 48C96 74.5097 74.5097 96 48 96C21.4903 96 0 74.5097 0 48C0 21.4903 21.4903 0 48 0C74.5097 0 96 21.4903 96 48Z"/>
</mask>
<path fill-rule="evenodd" clip-rule="evenodd" d="M77.8176 12.5961L78.0067 12.7573C80.1151 14.5542 82.0602 16.5369 83.8168 18.6802L83.9395 18.8299L83.9459 19.0234C83.9818 20.1028 84 21.1905 84 22.2857C84 28.4388 83.4257 34.3526 82.3682 39.9038L82.0023 41.8248L81.2763 40.009C77.1062 29.5794 71.0732 21.2701 63.9631 16.2354L62.9809 15.5399L64.1407 15.2183C68.3682 14.0463 72.8667 13.1657 77.5707 12.6245L77.8176 12.5961ZM73.9446 9.63442L72.4644 9.8803C67.749 10.6636 63.2517 11.7823 59.0408 13.1929L58.8297 13.2636L58.6265 13.1729C55.2418 11.6624 51.6785 10.8571 48 10.8571C44.3215 10.8571 40.7582 11.6624 37.3736 13.1729L37.1703 13.2636L36.9592 13.1929C32.7483 11.7823 28.251 10.6636 23.5356 9.88029L22.0554 9.63442L23.3242 8.8334C30.4671 4.32386 38.9297 1.71429 48 1.71429C57.0703 1.71429 65.5329 4.32386 72.6758 8.8334L73.9446 9.63442ZM22.0554 86.3656L23.5356 86.1197C28.251 85.3364 32.7483 84.2177 36.9592 82.8071L37.1703 82.7364L37.3736 82.8271C40.7582 84.3376 44.3215 85.1429 48 85.1429C51.6785 85.1429 55.2418 84.3376 58.6265 82.8271L58.8297 82.7364L59.0408 82.8071C63.2517 84.2177 67.749 85.3364 72.4644 86.1197L73.9446 86.3656L72.6758 87.1666C65.5329 91.6761 57.0703 94.2857 48 94.2857C38.9297 94.2857 30.4671 91.6761 23.3242 87.1666L22.0554 86.3656ZM18.1824 83.4039L17.9933 83.2427C15.8849 81.4458 13.9398 79.4631 12.1832 77.3198L12.0605 77.1701L12.0541 76.9766C12.0182 75.8972 12 74.8096 12 73.7143C12 67.5612 12.5743 61.6475 13.6318 56.0962L13.9977 54.1752L14.7237 55.991C18.8938 66.4206 24.9268 74.7299 32.0369 79.7646L33.0191 80.4601L31.8593 80.7817C27.6318 81.9537 23.1333 82.8343 18.4293 83.3755L18.1824 83.4039ZM42.0091 80.9442L43.6569 80.213C45.0597 79.5904 46.4199 78.9329 47.7343 78.2424L48 78.1028L48.2658 78.2424C49.5801 78.9329 50.9403 79.5904 52.3431 80.213L53.9909 80.9442L52.2228 81.2957C50.8248 81.5737 49.4148 81.7143 48 81.7143C46.5852 81.7143 45.1752 81.5737 43.7772 81.2957L42.0091 80.9442ZM37.3924 79.0285L37.1684 78.9099C31.988 76.1663 27.1721 71.4614 23.0991 65.0028C20.0602 60.1839 17.5161 54.493 15.6338 48.1629L15.5854 48L15.6338 47.8371C17.5161 41.507 20.0602 35.8161 23.0991 30.9972C27.1721 24.5386 31.988 19.8337 37.1684 17.0901L37.3924 16.9715L37.6306 17.0578C39.673 17.7983 41.6354 18.6103 43.5088 19.4876L44.4452 19.9261L43.5757 20.4856C32.4616 27.6378 25.7143 37.3627 25.7143 48C25.7143 58.6373 32.4616 68.3622 43.5757 75.5144L44.4452 76.0739L43.5088 76.5124C41.6354 77.3897 39.673 78.2018 37.6306 78.9422L37.3924 79.0285ZM58.6076 79.0285L58.3694 78.9422C56.327 78.2018 54.3646 77.3897 52.4912 76.5124L51.5548 76.0739L52.4243 75.5144C63.5384 68.3622 70.2857 58.6373 70.2857 48C70.2857 37.3627 63.5384 27.6378 52.4243 20.4856L51.5548 19.9261L52.4912 19.4876C54.3646 18.6103 56.327 17.7983 58.3694 17.0578L58.6076 16.9715L58.8316 17.0901C64.012 19.8337 68.8279 24.5386 72.9009 30.9972C75.9398 35.8161 78.4839 41.507 80.3662 47.8371L80.4146 48L80.3662 48.1629C78.4839 54.493 75.9398 60.1839 72.9009 65.0028C68.8279 71.4614 64.012 76.1663 58.8316 78.9099L58.6076 79.0285ZM48 21.8106L48.2861 21.9761C48.9194 22.3423 49.5394 22.7168 50.1457 23.0991C60.9445 29.9092 66.8571 38.8146 66.8571 48C66.8571 57.1854 60.9445 66.0908 50.1457 72.9009C49.5394 73.2832 48.9194 73.6577 48.2861 74.0239L48 74.1894L47.7139 74.0239C47.0806 73.6577 46.4606 73.2832 45.8543 72.9009C35.0555 66.0908 29.1429 57.1854 29.1429 48C29.1429 38.8146 35.0555 29.9092 45.8543 23.0991C46.4606 22.7168 47.0806 22.3423 47.7139 21.9761L48 21.8106ZM53.9909 15.0558L52.3431 15.787C50.9403 16.4096 49.5801 17.0671 48.2657 17.7576L48 17.8972L47.7343 17.7576C46.4199 17.0671 45.0597 16.4096 43.6569 15.787L42.0091 15.0558L43.7772 14.7043C45.1752 14.4263 46.5852 14.2857 48 14.2857C49.4148 14.2857 50.8248 14.4263 52.2228 14.7043L53.9909 15.0558ZM12.0605 18.8299L12.1832 18.6802C13.9398 16.5369 15.8849 14.5542 17.9933 12.7573L18.1824 12.5961L18.4293 12.6245C23.1333 13.1657 27.6318 14.0463 31.8593 15.2183L33.0191 15.5399L32.0369 16.2354C24.9268 21.2701 18.8938 29.5794 14.7237 40.009L13.9977 41.8248L13.6318 39.9038C12.5743 34.3526 12 28.4388 12 22.2857C12 21.1905 12.0182 20.1028 12.0541 19.0234L12.0605 18.8299ZM77.8176 83.4039L77.5707 83.3755C72.8667 82.8343 68.3682 81.9537 64.1407 80.7817L62.981 80.4601L63.9631 79.7646C71.0732 74.7299 77.1062 66.4206 81.2763 55.991L82.0023 54.1752L82.3682 56.0962C83.4257 61.6474 84 67.5612 84 73.7143C84 74.8096 83.9818 75.8972 83.9459 76.9766L83.9395 77.1701L83.8168 77.3198C82.0602 79.4631 80.1151 81.4458 78.0067 83.2427L77.8176 83.4039ZM8.56008 23.6758L8.62962 25.7269C8.89555 33.5698 10.0649 41.0286 11.9739 47.8459L12.017 48L11.9739 48.1541C10.0649 54.9714 8.89555 62.4302 8.62962 70.2731L8.56008 72.3242L7.5596 70.5323C3.83605 63.8635 1.71429 56.1787 1.71429 48C1.71429 39.8213 3.83605 32.1365 7.5596 25.4677L8.56008 23.6758ZM87.4399 23.6758L88.4404 25.4677C92.164 32.1365 94.2857 39.8213 94.2857 48C94.2857 56.1787 92.164 63.8635 88.4404 70.5323L87.4399 72.3242L87.3704 70.2731C87.1045 62.4302 85.9351 54.9714 84.0262 48.1541L83.983 48L84.0262 47.8459C85.9351 41.0286 87.1045 33.5698 87.3704 25.7269L87.4399 23.6758ZM42.2221 48.5871H50.4107C51.9978 48.5871 53.3405 48.8452 54.4027 49.4025C55.46 49.9571 56.2522 50.7638 56.7605 51.8148C57.2594 52.8307 57.4978 54.0138 57.4978 55.346C57.4978 57.3502 56.8659 59.0025 55.5614 60.2375C54.2525 61.4766 52.4376 62.058 50.1998 62.058H42.2221V48.5871ZM56.2467 52.0647C55.7935 51.1272 55.0904 50.4085 54.1373 49.9085C53.1842 49.4085 51.942 49.1585 50.4107 49.1585H42.7935V61.4866H50.1998C52.3404 61.4866 53.9967 60.9319 55.1685 59.8225C56.3404 58.7132 56.9263 57.221 56.9263 55.346C56.9263 54.0804 56.6998 52.9866 56.2467 52.0647ZM42.2221 46.144V34.1261H49.4498C51.7224 34.1261 53.5232 34.5627 54.7478 35.537C56.0254 36.5247 56.6071 38.0824 56.6071 40.0647C56.6071 41.9453 55.9548 43.4698 54.6157 44.5622C53.3017 45.6342 51.6005 46.144 49.567 46.144H42.2221ZM54.3951 35.9866C53.317 35.1272 51.6685 34.6975 49.4498 34.6975H42.7935V45.5725H49.567C51.5045 45.5725 53.067 45.0882 54.2545 44.1194C55.442 43.1507 56.0357 41.7991 56.0357 40.0647C56.0357 38.1897 55.4888 36.8304 54.3951 35.9866ZM53.7541 47.3074L55.2868 46.6497C55.6041 46.5135 55.9089 46.3633 56.2015 46.1992L56.204 46.1977C57.4267 45.5201 58.36 44.6614 59.0221 43.6256C59.6801 42.5806 60.0112 41.4142 60.0112 40.1116C60.0112 37.0618 59.0711 34.9577 57.2925 33.659L57.2901 33.6573C55.4535 32.3017 52.8621 31.5893 49.4498 31.5893H38.8181V64.5714H50.1998C53.5127 64.5714 56.0992 63.7596 58.0176 62.1928C59.9204 60.6359 60.9018 58.3691 60.9018 55.2991C60.9018 53.912 60.6147 52.6567 60.0481 51.5234L60.0454 51.5181C59.4959 50.3902 58.6953 49.4658 57.6347 48.7393C56.9772 48.289 56.2236 47.9505 55.3681 47.7278L53.7541 47.3074ZM58.3795 62.635C60.442 60.9475 61.4732 58.5022 61.4732 55.2991C61.4732 53.8304 61.1685 52.4866 60.5592 51.2679C59.9654 50.0491 59.0982 49.0491 57.9576 48.2679C57.4601 47.9271 56.915 47.6473 56.3223 47.4284C56.0615 47.332 55.7914 47.2475 55.5121 47.1748C55.7756 47.0617 56.0315 46.9392 56.2797 46.8074C56.3474 46.7715 56.4145 46.7349 56.481 46.6975C57.7779 45.9788 58.7857 45.0569 59.5045 43.9319C60.2232 42.7913 60.5826 41.5179 60.5826 40.1116C60.5826 36.9397 59.5982 34.635 57.6295 33.1975C55.6607 31.7444 52.9342 31.0179 49.4498 31.0179H38.2467V65.1429H50.1998C53.606 65.1429 56.3326 64.3069 58.3795 62.635ZM37.6752 65.6352C32.4544 60.2405 29.7143 54.1613 29.7143 48C29.7143 39.0794 35.4585 30.3306 46.1591 23.5825C46.7591 23.2041 47.3729 22.8334 48 22.4707C48.6271 22.8334 49.2409 23.2041 49.8409 23.5825C60.5415 30.3306 66.2857 39.0794 66.2857 48C66.2857 56.9206 60.5415 65.6694 49.8409 72.4175C49.2409 72.7959 48.6271 73.1666 48 73.5293C47.3729 73.1666 46.7591 72.7959 46.1591 72.4175C42.8853 70.3529 40.0753 68.1011 37.7519 65.7143C37.7263 65.688 37.7007 65.6616 37.6752 65.6352ZM48 95.4286C74.1941 95.4286 95.4286 74.1941 95.4286 48C95.4286 21.8059 74.1941 0.571429 48 0.571429C21.8059 0.571429 0.571429 21.8059 0.571429 48C0.571429 74.1941 21.8059 95.4286 48 95.4286ZM64.8871 16.1987C71.6264 21.1827 77.3445 29.0574 81.4072 38.8173C81.5423 39.1417 81.6755 39.4683 81.8069 39.7969C81.8729 39.4504 81.937 39.1024 81.9992 38.753C82.927 33.5418 83.4286 28.019 83.4286 22.2857C83.4286 21.1968 83.4105 20.1154 83.3748 19.0424C81.6398 16.9254 79.7186 14.967 77.636 13.1922C73.2234 13.6998 68.9944 14.5079 65.0037 15.5755C64.766 15.6391 64.5293 15.7036 64.2934 15.769C64.4921 15.9098 64.69 16.053 64.8871 16.1987ZM24.3649 8.86181C31.2617 4.68801 39.3503 2.28571 48 2.28571C56.6497 2.28571 64.7383 4.68801 71.6351 8.86181C71.8818 9.01115 72.1271 9.16275 72.3707 9.31659C72.0869 9.36374 71.8039 9.4121 71.5216 9.46165C67.086 10.2404 62.8463 11.3155 58.8593 12.651C55.4062 11.11 51.7638 10.2857 48 10.2857C44.2362 10.2857 40.5938 11.11 37.1407 12.651C33.1537 11.3155 28.914 10.2404 24.4784 9.46165C24.1961 9.41209 23.9131 9.36374 23.6293 9.31659C23.8729 9.16275 24.1182 9.01115 24.3649 8.86181ZM71.6351 87.1382C64.7383 91.312 56.6497 93.7143 48 93.7143C39.3503 93.7143 31.2617 91.312 24.3649 87.1382C24.1182 86.9889 23.8729 86.8373 23.6293 86.6834C23.9131 86.6363 24.1961 86.5879 24.4784 86.5384C28.914 85.7596 33.1537 84.6845 37.1407 83.349C40.5938 84.89 44.2362 85.7143 48 85.7143C51.7638 85.7143 55.4062 84.89 58.8593 83.349C62.8463 84.6845 67.086 85.7596 71.5216 86.5384C71.8039 86.5879 72.0869 86.6363 72.3707 86.6834C72.1271 86.8373 71.8818 86.9889 71.6351 87.1382ZM31.7066 80.231C31.5079 80.0902 31.31 79.947 31.1129 79.8013C24.3736 74.8173 18.6556 66.9426 14.5928 57.1827C14.4577 56.8583 14.3245 56.5317 14.1931 56.2031C14.1271 56.5497 14.063 56.8976 14.0008 57.247C13.073 62.4582 12.5714 67.981 12.5714 73.7143C12.5714 74.8032 12.5895 75.8846 12.6252 76.9576C14.3602 79.0746 16.2814 81.033 18.364 82.8078C22.7766 82.3002 27.0056 81.4921 30.9963 80.4245C31.234 80.3609 31.4707 80.2964 31.7066 80.231ZM51.1087 80.9101C50.0767 81.0649 49.0395 81.1429 48 81.1429C46.9605 81.1429 45.9233 81.0649 44.8913 80.9101C44.5565 80.8599 44.2223 80.8016 43.8887 80.7353C44.1974 80.5983 44.5041 80.4596 44.8088 80.3192C45.8994 79.8167 46.9637 79.2927 48 78.7483C49.0363 79.2927 50.1006 79.8167 51.1913 80.3192C51.4959 80.4596 51.8026 80.5983 52.1114 80.7353C51.7777 80.8016 51.4435 80.8599 51.1087 80.9101ZM42.653 76.2783C42.8586 76.1846 43.063 76.0902 43.2665 75.9949C43.0771 75.8731 42.889 75.7505 42.7021 75.6271C31.8238 68.4463 25.1429 58.7152 25.1429 48C25.1429 37.2848 31.8238 27.5537 42.7021 20.3729C42.889 20.2495 43.0771 20.1269 43.2665 20.0051C43.063 19.9098 42.8586 19.8154 42.653 19.7217C40.9818 18.9598 39.2407 18.2493 37.4359 17.595C32.3637 20.2813 27.6158 24.9064 23.5825 31.302C20.5744 36.0719 18.0507 41.714 16.1815 48C18.0507 54.286 20.5744 59.9281 23.5825 64.698C27.6158 71.0936 32.3637 75.7187 37.4359 78.405C39.2407 77.7506 40.9818 77.0402 42.653 76.2783ZM79.8185 48C77.9493 54.286 75.4256 59.9281 72.4175 64.698C68.3842 71.0936 63.6363 75.7187 58.5641 78.405C56.7593 77.7506 55.0182 77.0402 53.347 76.2783C53.1415 76.1846 52.937 76.0902 52.7336 75.9949C52.9229 75.8731 53.111 75.7505 53.2979 75.6271C64.1762 68.4463 70.8571 58.7152 70.8571 48C70.8571 37.2848 64.1762 27.5537 53.2979 20.3729C53.111 20.2495 52.9229 20.1269 52.7336 20.0051C52.937 19.9098 53.1415 19.8153 53.347 19.7216C55.0182 18.9598 56.7593 18.2493 58.5641 17.595C63.6363 20.2813 68.3842 24.9064 72.4175 31.302C75.4256 36.0719 77.9493 41.714 79.8185 48ZM52.1114 15.2647C51.7777 15.1984 51.4435 15.1401 51.1087 15.0899C50.0767 14.9351 49.0395 14.8571 48 14.8571C46.9605 14.8571 45.9233 14.9351 44.8913 15.0899C44.5565 15.1401 44.2223 15.1984 43.8887 15.2647C44.1974 15.4017 44.5041 15.5404 44.8088 15.6808C45.8994 16.1833 46.9637 16.7073 48 17.2517C49.0363 16.7073 50.1006 16.1833 51.1913 15.6808C51.4959 15.5404 51.8026 15.4017 52.1114 15.2647ZM31.1129 16.1987C24.3736 21.1827 18.6556 29.0574 14.5928 38.8173C14.4577 39.1417 14.3245 39.4683 14.1931 39.7969C14.1271 39.4504 14.063 39.1024 14.0008 38.753C13.073 33.5418 12.5714 28.019 12.5714 22.2857C12.5714 21.1968 12.5895 20.1154 12.6252 19.0424C14.3602 16.9254 16.2814 14.967 18.364 13.1922C22.7766 13.6998 27.0056 14.5079 30.9963 15.5755C31.234 15.6391 31.4707 15.7036 31.7067 15.769C31.5079 15.9098 31.31 16.053 31.1129 16.1987ZM83.3748 76.9576C83.4105 75.8846 83.4286 74.8032 83.4286 73.7143C83.4286 67.981 82.927 62.4582 81.9992 57.247C81.937 56.8976 81.8729 56.5497 81.8069 56.2031C81.6755 56.5317 81.5423 56.8583 81.4072 57.1827C77.3445 66.9426 71.6264 74.8173 64.8871 79.8013C64.69 79.947 64.4921 80.0902 64.2934 80.231C64.5293 80.2964 64.7661 80.3609 65.0037 80.4245C68.9944 81.4921 73.2234 82.3002 77.636 82.8078C79.7186 81.033 81.6398 79.0746 83.3748 76.9576ZM8.05852 25.7463C7.8767 26.0719 7.69874 26.4 7.52472 26.7305C4.17918 33.0838 2.28571 40.3208 2.28571 48C2.28571 55.6792 4.17918 62.9162 7.52472 69.2695C7.69874 69.6 7.8767 69.9281 8.05852 70.2537C8.07114 69.8815 8.08579 69.5102 8.10244 69.1397C8.43861 61.6599 9.59267 54.5388 11.4236 48C9.59267 41.4612 8.43861 34.3401 8.10244 26.8604C8.08579 26.4899 8.07114 26.1185 8.05852 25.7463ZM87.8976 69.1397C87.5614 61.6599 86.4073 54.5388 84.5764 48C86.4073 41.4612 87.5614 34.3401 87.8976 26.8604C87.9142 26.4899 87.9289 26.1185 87.9415 25.7463C88.1233 26.0719 88.3013 26.4 88.4753 26.7305C91.8208 33.0838 93.7143 40.3208 93.7143 48C93.7143 55.6792 91.8208 62.9162 88.4753 69.2695C88.3013 69.6 88.1233 69.9281 87.9415 70.2537C87.9289 69.8815 87.9142 69.5101 87.8976 69.1397ZM96 48C96 74.5097 74.5097 96 48 96C21.4903 96 0 74.5097 0 48C0 21.4903 21.4903 0 48 0C74.5097 0 96 21.4903 96 48Z" fill="black" stroke="black" stroke-width="2" mask="url(#path-1-inside-1_17_101)"/>
</svg>
